<?xml version="1.0" encoding="UTF-8"?>
<!DOCTYPE svg PUBLIC "-//W3C//DTD SVG 1.1//EN" "http://www.w3.org/Graphics/SVG/1.1/DTD/svg11.dtd">
<svg xmlns="http://www.w3.org/2000/svg" version="1.1" width="606px" height="412px" style="shape-rendering:geometricPrecision; text-rendering:geometricPrecision; image-rendering:optimizeQuality; fill-rule:evenodd; clip-rule:evenodd" xmlns:xlink="http://www.w3.org/1999/xlink">
<g><path style="opacity:0.988" fill="#85614e" d="M 287.5,9.5 C 281.499,8.26403 275.499,8.43069 269.5,10C 265.367,12.0144 261.367,14.181 257.5,16.5C 264.85,8.10409 274.184,4.93743 285.5,7C 286.381,7.7083 287.047,8.54163 287.5,9.5 Z"/></g>
<g><path style="opacity:1" fill="#784e35" d="M 152.5,29.5 C 149.743,30.3315 147.576,29.3315 146,26.5C 144.53,27.2666 143.03,27.9332 141.5,28.5C 143.089,22.3684 140.922,18.3684 135,16.5C 133.267,18.6015 131.267,18.9348 129,17.5C 128.508,16.451 128.674,15.451 129.5,14.5C 123.325,13.7747 117.158,13.1081 111,12.5C 110.228,12.6448 109.561,12.9781 109,13.5C 107.21,18.7831 105.376,24.1164 103.5,29.5C 105.124,30.8689 105.624,32.5355 105,34.5C 104.667,33.8333 104.333,33.1667 104,32.5C 103.833,35 103.667,37.5 103.5,40C 104.898,45.2268 105.898,50.5601 106.5,56C 106.333,58.5 106.167,61 106,63.5C 104.757,62.6637 103.59,62.997 102.5,64.5C 103.448,69.4351 103.781,74.4351 103.5,79.5C 102.252,76.0584 101.419,72.3917 101,68.5C 100.188,56.0911 100.355,43.7577 101.5,31.5C 103.419,27.1434 104.419,22.4767 104.5,17.5C 107.228,9.27582 112.895,5.77582 121.5,7C 134.246,11.256 144.579,18.756 152.5,29.5 Z"/></g>
<g><path style="opacity:0.361" fill="#9a8575" d="M 104.5,17.5 C 104.419,22.4767 103.419,27.1434 101.5,31.5C 101.898,26.5881 102.898,21.9215 104.5,17.5 Z"/></g>
<g><path style="opacity:1" fill="#764324" d="M 287.5,9.5 C 289.113,9.94425 290.28,10.9443 291,12.5C 293.09,16.5994 294.256,20.9328 294.5,25.5C 295.479,40.5091 295.479,55.5091 294.5,70.5C 293.194,72.8162 291.861,75.1495 290.5,77.5C 290.726,79.1886 291.059,80.8553 291.5,82.5C 289.979,86.6761 289.145,91.0095 289,95.5C 288.586,95.9574 288.086,96.2907 287.5,96.5C 286.734,102.209 285.067,107.542 282.5,112.5C 285.458,118.686 287.792,125.02 289.5,131.5C 289.223,136.233 289.557,140.9 290.5,145.5C 288.967,148.373 287.301,151.039 285.5,153.5C 285.608,151.486 284.942,149.82 283.5,148.5C 281.342,137.969 279.842,127.302 279,116.5C 274.714,101.244 266.881,88.244 255.5,77.5C 255.667,77.1667 255.833,76.8333 256,76.5C 264.512,83.8793 272.346,91.8793 279.5,100.5C 280.086,100.291 280.586,99.9574 281,99.5C 288.436,74.6138 290.436,49.2804 287,23.5C 285.666,14.9516 280.833,12.1182 272.5,15C 258.333,25.1667 246.167,37.3333 236,51.5C 235.333,52.8333 235.333,54.1667 236,55.5C 237.919,57.6911 239.253,60.0245 240,62.5C 231.576,56.3425 222.076,52.8425 211.5,52C 203.167,51.3333 194.833,51.3333 186.5,52C 181.873,52.05 177.54,52.8833 173.5,54.5C 167.38,55.5602 162.046,58.2269 157.5,62.5C 156.479,61.9984 156.312,61.3317 157,60.5C 159.018,58.6499 160.851,56.6499 162.5,54.5C 157.958,48.0597 152.958,42.0597 147.5,36.5C 145.203,34.1827 143.203,31.516 141.5,28.5C 143.03,27.9332 144.53,27.2666 146,26.5C 147.576,29.3315 149.743,30.3315 152.5,29.5C 157.837,34.9824 162.837,40.8158 167.5,47C 182.023,44.8482 196.69,44.0149 211.5,44.5C 223.684,52.3095 232.351,49.6428 237.5,36.5C 243.112,28.8877 249.779,22.221 257.5,16.5C 261.367,14.181 265.367,12.0144 269.5,10C 275.499,8.43069 281.499,8.26403 287.5,9.5 Z"/></g>
<g><path style="opacity:0.961" fill="#876551" d="M 237.5,36.5 C 232.351,49.6428 223.684,52.3095 211.5,44.5C 217.2,44.5405 222.7,45.5405 228,47.5C 231.032,43.641 234.198,39.9743 237.5,36.5 Z"/></g>
<g><path style="opacity:0.267" fill="#967664" d="M 294.5,25.5 C 297.103,42.5022 297.103,59.5022 294.5,76.5C 294.5,74.5 294.5,72.5 294.5,70.5C 295.479,55.5091 295.479,40.5091 294.5,25.5 Z"/></g>
<g><path style="opacity:1" fill="#c9965e" d="M 141.5,28.5 C 143.203,31.516 145.203,34.1827 147.5,36.5C 146.724,38.974 145.224,39.6407 143,38.5C 142.517,39.448 142.351,40.448 142.5,41.5C 144.144,41.2865 145.644,41.6198 147,42.5C 147.024,46.8818 148.191,50.8818 150.5,54.5C 150.143,58.6792 147.81,60.5125 143.5,60C 142.833,60.6667 142.167,61.3333 141.5,62C 143.851,64.0662 146.351,65.8996 149,67.5C 149.494,69.1341 149.66,70.8008 149.5,72.5C 144.855,72.4787 142.521,74.8121 142.5,79.5C 140.146,82.5211 137.479,85.1877 134.5,87.5C 135.728,84.9249 137.395,82.5916 139.5,80.5C 138.998,79.479 138.332,79.3123 137.5,80C 129.551,85.7796 123.218,92.9463 118.5,101.5C 117.712,100.23 116.712,99.2299 115.5,98.5C 115.405,96.2143 114.738,94.2143 113.5,92.5C 108.688,72.4765 107.188,52.1432 109,31.5C 109.368,26.6962 110.368,22.0296 112,17.5C 114.367,15.0442 117.2,14.2108 120.5,15C 122.833,16 125.167,17 127.5,18C 132.327,21.332 136.993,24.832 141.5,28.5 Z"/></g>
<g><path style="opacity:1" fill="#312320" d="M 129.5,31.5 C 131.519,34.3667 133.852,37.0333 136.5,39.5C 137.583,41.7917 137.583,44.1251 136.5,46.5C 136.776,48.3302 137.443,49.9968 138.5,51.5C 139.541,49.0087 140.374,49.0087 141,51.5C 142.299,51.0338 143.799,51.0338 145.5,51.5C 145.5,52.5 145.5,53.5 145.5,54.5C 142.136,52.7873 139.136,53.2873 136.5,56C 137.326,59.5573 138.326,63.0573 139.5,66.5C 137.833,66.5 136.167,66.5 134.5,66.5C 134.5,65.5 134.5,64.5 134.5,63.5C 132.362,63.703 130.695,64.703 129.5,66.5C 128.281,65.7366 127.281,64.7366 126.5,63.5C 125.941,68.9613 123.608,73.2947 119.5,76.5C 114.727,62.4335 113.727,48.1002 116.5,33.5C 117.5,33.5 118.5,33.5 119.5,33.5C 119.147,31.3652 119.98,30.0319 122,29.5C 124.433,30.4788 126.933,31.1455 129.5,31.5 Z"/></g>
<g><path style="opacity:1" fill="#4a341f" d="M 129.5,31.5 C 126.933,31.1455 124.433,30.4788 122,29.5C 119.98,30.0319 119.147,31.3652 119.5,33.5C 118.5,33.5 117.5,33.5 116.5,33.5C 113.727,48.1002 114.727,62.4335 119.5,76.5C 119.5,77.8333 119.5,79.1667 119.5,80.5C 117.343,76.4677 115.843,72.1343 115,67.5C 113.577,57.5361 113.244,47.5361 114,37.5C 115.837,26.6391 121.004,24.6391 129.5,31.5 Z"/></g>
<g><path style="opacity:1" fill="#d49e5d" d="M 147.5,36.5 C 152.958,42.0597 157.958,48.0597 162.5,54.5C 160.851,56.6499 159.018,58.6499 157,60.5C 156.312,61.3317 156.479,61.9984 157.5,62.5C 162.046,58.2269 167.38,55.5602 173.5,54.5C 176.374,54.4511 179.208,54.7844 182,55.5C 195.18,52.8411 208.347,53.0078 221.5,56C 225.656,56.8236 229.489,58.3236 233,60.5C 233.374,61.4162 233.874,62.2496 234.5,63C 233.033,64.0975 232.199,65.5975 232,67.5C 230.187,68.6091 229.354,67.9424 229.5,65.5C 228.167,65.5 226.833,65.5 225.5,65.5C 225.5,66.5 225.5,67.5 225.5,68.5C 222.012,68.7054 218.679,69.5387 215.5,71C 218.146,71.4974 220.813,71.6641 223.5,71.5C 223.5,72.5 223.5,73.5 223.5,74.5C 220.5,74.5 217.5,74.5 214.5,74.5C 214.649,73.448 214.483,72.448 214,71.5C 213.503,74.146 213.336,76.8127 213.5,79.5C 212.178,79.67 211.011,79.3366 210,78.5C 209.529,80.2464 208.862,81.913 208,83.5C 207.126,86.3787 207.46,89.0454 209,91.5C 209.333,90.1667 209.667,88.8333 210,87.5C 210.333,87.8333 210.667,88.1667 211,88.5C 211.359,85.4557 212.026,85.1224 213,87.5C 213.84,82.1229 217.007,80.2895 222.5,82C 225.167,82.6667 225.167,83.3333 222.5,84C 222.833,84.3333 223.167,84.6667 223.5,85C 226.043,85.1397 228.377,85.8063 230.5,87C 224.94,88.5324 219.273,89.3657 213.5,89.5C 213.12,95.1555 211.786,100.489 209.5,105.5C 209.667,107.167 209.833,108.833 210,110.5C 210.383,111.056 210.883,111.389 211.5,111.5C 211.833,111.5 212.167,111.5 212.5,111.5C 212.804,114.522 213.304,117.522 214,120.5C 215.401,118.808 217.234,118.141 219.5,118.5C 219.334,122.846 219.501,127.179 220,131.5C 223.195,132.424 226.361,132.09 229.5,130.5C 238.706,135.904 237.706,139.071 226.5,140C 225.1,141.438 223.433,142.271 221.5,142.5C 221.512,138.554 219.512,136.887 215.5,137.5C 215.666,142.179 215.499,146.845 215,151.5C 214.033,153.63 212.866,155.63 211.5,157.5C 211.68,158.554 212.013,159.554 212.5,160.5C 203.859,161.498 195.192,161.831 186.5,161.5C 186.429,158.689 185.762,156.022 184.5,153.5C 185.553,148.867 185.719,144.201 185,139.5C 183.743,137.254 181.91,135.921 179.5,135.5C 180.191,131.774 181.191,128.107 182.5,124.5C 183.105,127.304 183.938,129.971 185,132.5C 185.956,131.421 186.789,130.255 187.5,129C 184.819,125.437 184.152,121.604 185.5,117.5C 192.8,100.976 187.467,93.8097 169.5,96C 167.077,97.5707 165.744,99.7374 165.5,102.5C 170.32,103.321 173.653,105.988 175.5,110.5C 175.5,111.5 175.5,112.5 175.5,113.5C 172.997,112.274 170.331,111.274 167.5,110.5C 166.167,110.667 164.833,110.833 163.5,111C 159.457,113.002 155.457,115.002 151.5,117C 153.859,121.925 157.026,125.425 161,127.5C 161.49,128.793 161.657,130.127 161.5,131.5C 163.857,131.337 166.19,131.503 168.5,132C 168.957,132.414 169.291,132.914 169.5,133.5C 167.627,136.184 166.627,139.184 166.5,142.5C 163.061,142.747 159.728,142.414 156.5,141.5C 154.023,137.222 151.523,132.888 149,128.5C 148.107,127.919 147.107,127.585 146,127.5C 137.347,134.094 128.513,140.594 119.5,147C 117.627,148.704 115.96,150.537 114.5,152.5C 113.957,152.44 113.624,152.107 113.5,151.5C 116.968,138.357 119.468,125.023 121,111.5C 123.557,102.245 128.057,94.2452 134.5,87.5C 137.479,85.1877 140.146,82.5211 142.5,79.5C 142.521,74.8121 144.855,72.4787 149.5,72.5C 149.66,70.8008 149.494,69.1341 149,67.5C 146.351,65.8996 143.851,64.0662 141.5,62C 142.167,61.3333 142.833,60.6667 143.5,60C 147.81,60.5125 150.143,58.6792 150.5,54.5C 148.191,50.8818 147.024,46.8818 147,42.5C 145.644,41.6198 144.144,41.2865 142.5,41.5C 142.351,40.448 142.517,39.448 143,38.5C 145.224,39.6407 146.724,38.974 147.5,36.5 Z"/></g>
<g><path style="opacity:1" fill="#d19d5f" d="M 283.5,148.5 C 279.817,147.826 276.484,146.326 273.5,144C 266.811,137.121 259.478,131.287 251.5,126.5C 251.579,127.93 251.246,129.264 250.5,130.5C 247.981,134.349 245.314,138.183 242.5,142C 241.127,142.875 239.627,143.375 238,143.5C 234.875,142.744 231.709,142.411 228.5,142.5C 228.664,145.187 228.497,147.854 228,150.5C 224.695,148.728 222.528,146.062 221.5,142.5C 223.433,142.271 225.1,141.438 226.5,140C 237.706,139.071 238.706,135.904 229.5,130.5C 226.361,132.09 223.195,132.424 220,131.5C 219.501,127.179 219.334,122.846 219.5,118.5C 217.234,118.141 215.401,118.808 214,120.5C 213.304,117.522 212.804,114.522 212.5,111.5C 213.725,112.937 214.725,114.604 215.5,116.5C 216.365,117.583 217.365,117.749 218.5,117C 220.461,114.242 222.295,111.409 224,108.5C 227.313,106.021 230.48,103.355 233.5,100.5C 226.341,92.5576 219.174,92.5576 212,100.5C 211.501,104.152 211.335,107.818 211.5,111.5C 210.883,111.389 210.383,111.056 210,110.5C 209.833,108.833 209.667,107.167 209.5,105.5C 211.786,100.489 213.12,95.1555 213.5,89.5C 219.273,89.3657 224.94,88.5324 230.5,87C 228.377,85.8063 226.043,85.1397 223.5,85C 223.167,84.6667 222.833,84.3333 222.5,84C 225.167,83.3333 225.167,82.6667 222.5,82C 217.007,80.2895 213.84,82.1229 213,87.5C 212.026,85.1224 211.359,85.4557 211,88.5C 210.667,88.1667 210.333,87.8333 210,87.5C 209.667,88.8333 209.333,90.1667 209,91.5C 207.46,89.0454 207.126,86.3787 208,83.5C 208.862,81.913 209.529,80.2464 210,78.5C 211.011,79.3366 212.178,79.67 213.5,79.5C 213.336,76.8127 213.503,74.146 214,71.5C 214.483,72.448 214.649,73.448 214.5,74.5C 217.5,74.5 220.5,74.5 223.5,74.5C 223.5,73.5 223.5,72.5 223.5,71.5C 220.813,71.6641 218.146,71.4974 215.5,71C 218.679,69.5387 222.012,68.7054 225.5,68.5C 225.5,67.5 225.5,66.5 225.5,65.5C 226.833,65.5 228.167,65.5 229.5,65.5C 229.354,67.9424 230.187,68.6091 232,67.5C 232.199,65.5975 233.033,64.0975 234.5,63C 233.874,62.2496 233.374,61.4162 233,60.5C 229.489,58.3236 225.656,56.8236 221.5,56C 208.347,53.0078 195.18,52.8411 182,55.5C 179.208,54.7844 176.374,54.4511 173.5,54.5C 177.54,52.8833 181.873,52.05 186.5,52C 194.833,51.3333 203.167,51.3333 211.5,52C 222.076,52.8425 231.576,56.3425 240,62.5C 239.253,60.0245 237.919,57.6911 236,55.5C 235.333,54.1667 235.333,52.8333 236,51.5C 246.167,37.3333 258.333,25.1667 272.5,15C 280.833,12.1182 285.666,14.9516 287,23.5C 290.436,49.2804 288.436,74.6138 281,99.5C 280.586,99.9574 280.086,100.291 279.5,100.5C 272.346,91.8793 264.512,83.8793 256,76.5C 255.833,76.8333 255.667,77.1667 255.5,77.5C 266.881,88.244 274.714,101.244 279,116.5C 279.842,127.302 281.342,137.969 283.5,148.5 Z"/></g>
<g><path style="opacity:1" fill="#31241e" d="M 271.5,27.5 C 276.8,27.616 280.3,30.2827 282,35.5C 282.926,48.2408 282.426,60.9075 280.5,73.5C 279.036,77.2128 277.369,80.8795 275.5,84.5C 273.712,84.7852 272.045,84.4519 270.5,83.5C 265.982,80.1472 261.982,76.3138 258.5,72C 253.917,72.6121 252.084,70.7787 253,66.5C 255.955,65.4612 258.121,63.6279 259.5,61C 259.385,59.1049 258.718,57.4382 257.5,56C 255.1,55.8142 252.766,55.3142 250.5,54.5C 252.515,50.0953 254.515,45.762 256.5,41.5C 257.794,39.093 259.461,36.9263 261.5,35C 264.734,32.2519 268.068,29.7519 271.5,27.5 Z"/></g>
<g><path style="opacity:1" fill="#b1885b" d="M 280.5,73.5 C 282.426,60.9075 282.926,48.2408 282,35.5C 280.3,30.2827 276.8,27.616 271.5,27.5C 271.97,26.3065 272.97,25.6399 274.5,25.5C 276.791,25.6221 278.791,26.4554 280.5,28C 282.358,31.5904 283.524,35.4237 284,39.5C 284.667,46.8333 284.667,54.1667 284,61.5C 283.356,65.793 282.19,69.793 280.5,73.5 Z"/></g>
<g><path style="opacity:1" fill="#48301c" d="M 256.5,41.5 C 254.515,45.762 252.515,50.0953 250.5,54.5C 252.766,55.3142 255.1,55.8142 257.5,56C 258.718,57.4382 259.385,59.1049 259.5,61C 258.121,63.6279 255.955,65.4612 253,66.5C 252.084,70.7787 253.917,72.6121 258.5,72C 261.982,76.3138 265.982,80.1472 270.5,83.5C 272.045,84.4519 273.712,84.7852 275.5,84.5C 274.746,86.4459 273.412,87.2793 271.5,87C 264.913,80.4094 257.747,74.5761 250,69.5C 249.333,68.8333 249.333,68.1667 250,67.5C 252.333,65.5 254.667,63.5 257,61.5C 257.49,60.2068 257.657,58.8734 257.5,57.5C 254.167,57.5 250.833,57.5 247.5,57.5C 247.372,55.3453 247.872,53.3453 249,51.5C 251.277,47.9196 253.777,44.5863 256.5,41.5 Z"/></g>
<g><path style="opacity:1" fill="#35261c" d="M 129.5,31.5 C 135.835,35.6685 141.001,41.0018 145,47.5C 146.868,50.6051 148.035,53.9385 148.5,57.5C 145.751,57.2739 143.084,57.6072 140.5,58.5C 139.386,59.723 139.219,61.0563 140,62.5C 142.35,64.6829 144.517,67.0163 146.5,69.5C 143.554,72.3131 140.221,74.6465 136.5,76.5C 133.012,79.8222 129.679,83.3222 126.5,87C 125.056,87.7805 123.723,87.6139 122.5,86.5C 121.441,84.4664 120.441,82.4664 119.5,80.5C 119.5,79.1667 119.5,77.8333 119.5,76.5C 123.608,73.2947 125.941,68.9613 126.5,63.5C 127.281,64.7366 128.281,65.7366 129.5,66.5C 130.695,64.703 132.362,63.703 134.5,63.5C 134.5,64.5 134.5,65.5 134.5,66.5C 136.167,66.5 137.833,66.5 139.5,66.5C 138.326,63.0573 137.326,59.5573 136.5,56C 139.136,53.2873 142.136,52.7873 145.5,54.5C 145.5,53.5 145.5,52.5 145.5,51.5C 143.799,51.0338 142.299,51.0338 141,51.5C 140.374,49.0087 139.541,49.0087 138.5,51.5C 137.443,49.9968 136.776,48.3302 136.5,46.5C 137.583,44.1251 137.583,41.7917 136.5,39.5C 133.852,37.0333 131.519,34.3667 129.5,31.5 Z"/></g>
<g><path style="opacity:1" fill="#754121" d="M 141.5,28.5 C 136.993,24.832 132.327,21.332 127.5,18C 125.167,17 122.833,16 120.5,15C 117.2,14.2108 114.367,15.0442 112,17.5C 110.368,22.0296 109.368,26.6962 109,31.5C 107.188,52.1432 108.688,72.4765 113.5,92.5C 113.313,94.5643 112.813,96.5643 112,98.5C 111.333,99.8333 110.667,99.8333 110,98.5C 108.224,95.0641 107.224,91.3974 107,87.5C 105.918,85.3819 104.751,83.3819 103.5,81.5C 103.5,80.8333 103.5,80.1667 103.5,79.5C 103.781,74.4351 103.448,69.4351 102.5,64.5C 103.59,62.997 104.757,62.6637 106,63.5C 106.167,61 106.333,58.5 106.5,56C 105.898,50.5601 104.898,45.2268 103.5,40C 103.667,37.5 103.833,35 104,32.5C 104.333,33.1667 104.667,33.8333 105,34.5C 105.624,32.5355 105.124,30.8689 103.5,29.5C 105.376,24.1164 107.21,18.7831 109,13.5C 109.561,12.9781 110.228,12.6448 111,12.5C 117.158,13.1081 123.325,13.7747 129.5,14.5C 128.674,15.451 128.508,16.451 129,17.5C 131.267,18.9348 133.267,18.6015 135,16.5C 140.922,18.3684 143.089,22.3684 141.5,28.5 Z"/></g>
<g><path style="opacity:1" fill="#b8783f" d="M 198.5,65.5 C 199.822,65.33 200.989,65.6634 202,66.5C 204.623,69.774 206.789,73.274 208.5,77C 205.615,85.2585 202.615,93.4252 199.5,101.5C 197.727,93.3676 195.06,85.5343 191.5,78C 192.797,73.215 195.131,69.0484 198.5,65.5 Z"/></g>
<g><path style="opacity:1" fill="#f5e5c8" d="M 212.5,111.5 C 212.167,111.5 211.833,111.5 211.5,111.5C 211.335,107.818 211.501,104.152 212,100.5C 219.174,92.5576 226.341,92.5576 233.5,100.5C 230.48,103.355 227.313,106.021 224,108.5C 222.295,111.409 220.461,114.242 218.5,117C 217.365,117.749 216.365,117.583 215.5,116.5C 214.725,114.604 213.725,112.937 212.5,111.5 Z"/></g>
<g><path style="opacity:1" fill="#7d5640" d="M 294.5,70.5 C 294.5,72.5 294.5,74.5 294.5,76.5C 293.255,88.1404 290.255,99.3071 285.5,110C 287.529,117.036 288.862,124.203 289.5,131.5C 287.792,125.02 285.458,118.686 282.5,112.5C 285.067,107.542 286.734,102.209 287.5,96.5C 288.086,96.2907 288.586,95.9574 289,95.5C 289.145,91.0095 289.979,86.6761 291.5,82.5C 291.059,80.8553 290.726,79.1886 290.5,77.5C 291.861,75.1495 293.194,72.8162 294.5,70.5 Z"/></g>
<g><path style="opacity:1" fill="#77482f" d="M 103.5,81.5 C 104.751,83.3819 105.918,85.3819 107,87.5C 107.224,91.3974 108.224,95.0641 110,98.5C 110.667,99.8333 111.333,99.8333 112,98.5C 112.813,96.5643 113.313,94.5643 113.5,92.5C 114.738,94.2143 115.405,96.2143 115.5,98.5C 115.5,100.167 115.5,101.833 115.5,103.5C 117.604,103.201 119.604,103.534 121.5,104.5C 121.135,105.902 120.301,106.902 119,107.5C 117.56,106.852 116.06,106.519 114.5,106.5C 115.96,112.044 116.96,117.711 117.5,123.5C 117.251,126.581 115.918,129.081 113.5,131C 114.285,133.443 114.119,135.943 113,138.5C 112.333,137.833 111.667,137.167 111,136.5C 109.964,139.753 109.297,143.086 109,146.5C 105.35,150.053 104.684,154.053 107,158.5C 107.667,157.833 108.333,157.167 109,156.5C 109.497,158.81 109.663,161.143 109.5,163.5C 111.895,165.319 114.228,166.652 116.5,167.5C 113.974,170.895 112.307,174.729 111.5,179C 112.167,180.333 113.167,181.333 114.5,182C 111.366,184.388 109.533,187.554 109,191.5C 108.749,201.557 108.582,211.557 108.5,221.5C 107.511,215.685 106.845,209.685 106.5,203.5C 107.055,190.304 108.722,177.304 111.5,164.5C 110.325,164.719 109.325,164.386 108.5,163.5C 107.577,161.076 106.077,159.076 104,157.5C 103.833,156.167 103.667,154.833 103.5,153.5C 108.463,140.195 111.463,126.361 112.5,112C 109.583,104.995 107.083,97.8283 105,90.5C 104.047,87.5682 103.547,84.5682 103.5,81.5 Z"/></g>
<g><path style="opacity:1" fill="#f6e6ca" d="M 185.5,117.5 C 182.137,117.487 179.97,115.821 179,112.5C 177.887,111.695 176.721,111.028 175.5,110.5C 173.653,105.988 170.32,103.321 165.5,102.5C 165.744,99.7374 167.077,97.5707 169.5,96C 187.467,93.8097 192.8,100.976 185.5,117.5 Z"/></g>
<g><path style="opacity:1" fill="#47301f" d="M 236.5,125.5 C 236.5,124.5 236.5,123.5 236.5,122.5C 237.5,122.5 238.5,122.5 239.5,122.5C 240.013,120.71 240.513,119.044 241,117.5C 238.186,116.065 235.353,114.732 232.5,113.5C 229.586,115.261 227.086,117.594 225,120.5C 224.51,121.793 224.343,123.127 224.5,124.5C 227.388,123.99 229.721,124.656 231.5,126.5C 228.212,126.073 225.212,126.74 222.5,128.5C 221.549,116.289 227.215,111.123 239.5,113C 241.249,114.292 243.082,115.458 245,116.5C 245.667,117.167 245.667,117.833 245,118.5C 242.585,121.317 239.751,123.651 236.5,125.5 Z"/></g>
<g><path style="opacity:1" fill="#332520" d="M 236.5,125.5 C 234.958,126.301 233.292,126.634 231.5,126.5C 229.721,124.656 227.388,123.99 224.5,124.5C 224.343,123.127 224.51,121.793 225,120.5C 227.086,117.594 229.586,115.261 232.5,113.5C 235.353,114.732 238.186,116.065 241,117.5C 240.513,119.044 240.013,120.71 239.5,122.5C 238.5,122.5 237.5,122.5 236.5,122.5C 236.5,123.5 236.5,124.5 236.5,125.5 Z"/></g>
<g><path style="opacity:1" fill="#f5e8ce" d="M 156.5,141.5 C 157.616,143.508 159.449,144.508 162,144.5C 164.888,144.023 167.721,143.356 170.5,142.5C 171.474,144.743 171.808,147.076 171.5,149.5C 174.656,149.471 176.322,147.804 176.5,144.5C 178.629,142.344 180.962,140.677 183.5,139.5C 183.135,148.278 183.802,156.944 185.5,165.5C 181.76,168.599 180.593,172.599 182,177.5C 185.106,184.775 190.272,189.775 197.5,192.5C 197.703,194.39 197.037,195.89 195.5,197C 192.624,197.438 189.957,198.438 187.5,200C 182.905,201.393 178.239,201.726 173.5,201C 170.894,199.062 169.061,196.562 168,193.5C 165.684,187.243 163.517,180.91 161.5,174.5C 161.539,173.244 161.039,172.244 160,171.5C 159.501,175.486 159.334,179.486 159.5,183.5C 154.981,183.05 150.648,181.883 146.5,180C 144.183,177.843 141.516,176.343 138.5,175.5C 131.018,171.207 124.185,165.874 118,159.5C 117.312,158.668 117.479,158.002 118.5,157.5C 120.9,156.982 122.9,155.815 124.5,154C 120.975,153.821 117.641,153.321 114.5,152.5C 115.96,150.537 117.627,148.704 119.5,147C 128.513,140.594 137.347,134.094 146,127.5C 147.107,127.585 148.107,127.919 149,128.5C 151.523,132.888 154.023,137.222 156.5,141.5 Z"/></g>
<g><path style="opacity:1" fill="#f5e8ce" d="M 283.5,148.5 C 284.942,149.82 285.608,151.486 285.5,153.5C 281.486,153.334 277.486,153.501 273.5,154C 276.121,155.595 278.787,157.095 281.5,158.5C 276.752,163.584 271.419,167.917 265.5,171.5C 261.001,173.397 256.335,174.897 251.5,176C 247.667,179.167 243.833,182.333 240,185.5C 239.503,183.19 239.337,180.857 239.5,178.5C 239.662,176.473 239.495,174.473 239,172.5C 236.368,179.01 234.035,185.677 232,192.5C 227.614,200.936 220.781,203.77 211.5,201C 208.833,199.667 206.167,198.333 203.5,197C 201.963,195.89 201.297,194.39 201.5,192.5C 207.99,189.851 213.157,185.518 217,179.5C 218.257,174.617 217.424,170.284 214.5,166.5C 215.931,157.583 216.931,148.583 217.5,139.5C 218.852,140.524 220.185,141.524 221.5,142.5C 222.528,146.062 224.695,148.728 228,150.5C 228.497,147.854 228.664,145.187 228.5,142.5C 231.709,142.411 234.875,142.744 238,143.5C 239.627,143.375 241.127,142.875 242.5,142C 245.314,138.183 247.981,134.349 250.5,130.5C 251.246,129.264 251.579,127.93 251.5,126.5C 259.478,131.287 266.811,137.121 273.5,144C 276.484,146.326 279.817,147.826 283.5,148.5 Z"/></g>
<g><path style="opacity:1" fill="#d2a267" d="M 175.5,110.5 C 176.721,111.028 177.887,111.695 179,112.5C 179.97,115.821 182.137,117.487 185.5,117.5C 184.152,121.604 184.819,125.437 187.5,129C 186.789,130.255 185.956,131.421 185,132.5C 183.938,129.971 183.105,127.304 182.5,124.5C 181.191,128.107 180.191,131.774 179.5,135.5C 181.91,135.921 183.743,137.254 185,139.5C 185.719,144.201 185.553,148.867 184.5,153.5C 185.762,156.022 186.429,158.689 186.5,161.5C 195.192,161.831 203.859,161.498 212.5,160.5C 212.013,159.554 211.68,158.554 211.5,157.5C 212.866,155.63 214.033,153.63 215,151.5C 215.499,146.845 215.666,142.179 215.5,137.5C 219.512,136.887 221.512,138.554 221.5,142.5C 220.185,141.524 218.852,140.524 217.5,139.5C 216.931,148.583 215.931,157.583 214.5,166.5C 204.897,161.779 195.231,161.446 185.5,165.5C 183.802,156.944 183.135,148.278 183.5,139.5C 180.962,140.677 178.629,142.344 176.5,144.5C 176.322,147.804 174.656,149.471 171.5,149.5C 171.808,147.076 171.474,144.743 170.5,142.5C 167.721,143.356 164.888,144.023 162,144.5C 159.449,144.508 157.616,143.508 156.5,141.5C 159.728,142.414 163.061,142.747 166.5,142.5C 166.627,139.184 167.627,136.184 169.5,133.5C 169.291,132.914 168.957,132.414 168.5,132C 166.19,131.503 163.857,131.337 161.5,131.5C 161.657,130.127 161.49,128.793 161,127.5C 157.026,125.425 153.859,121.925 151.5,117C 155.457,115.002 159.457,113.002 163.5,111C 164.833,110.833 166.167,110.667 167.5,110.5C 170.331,111.274 172.997,112.274 175.5,113.5C 175.5,112.5 175.5,111.5 175.5,110.5 Z"/></g>
<g><path style="opacity:1" fill="#3b291e" d="M 161.5,112.5 C 172.789,111.82 178.789,117.153 179.5,128.5C 173.718,126.866 167.718,126.032 161.5,126C 158.485,122.844 156.152,119.344 154.5,115.5C 157.577,115.821 159.91,114.821 161.5,112.5 Z"/></g>
<g><path style="opacity:0.621" fill="#8c6b5a" d="M 317.5,161.5 C 334.771,163.153 352.104,163.987 369.5,164C 384.374,164.941 399.041,166.441 413.5,168.5C 384.139,167.009 354.806,165.342 325.5,163.5C 322.19,165.169 319.524,164.502 317.5,161.5 Z"/></g>
<g><path style="opacity:1" fill="#754324" d="M 134.5,87.5 C 128.057,94.2452 123.557,102.245 121,111.5C 119.468,125.023 116.968,138.357 113.5,151.5C 113.624,152.107 113.957,152.44 114.5,152.5C 117.641,153.321 120.975,153.821 124.5,154C 122.9,155.815 120.9,156.982 118.5,157.5C 117.479,158.002 117.312,158.668 118,159.5C 124.185,165.874 131.018,171.207 138.5,175.5C 142.559,180.067 146.059,185.067 149,190.5C 149.667,192.167 149.667,193.833 149,195.5C 143.252,187.587 136.085,181.253 127.5,176.5C 124.952,175.308 122.618,173.642 120.5,171.5C 117.759,177.131 116.259,183.131 116,189.5C 115.219,198.862 115.386,208.195 116.5,217.5C 117.687,219.812 119.02,219.646 120.5,217C 121.635,216.251 122.635,216.417 123.5,217.5C 127.54,229.994 132.207,242.16 137.5,254C 137.15,255.257 136.483,255.591 135.5,255C 132.586,251.6 129.92,248.1 127.5,244.5C 127.5,244.167 127.5,243.833 127.5,243.5C 126.603,239.521 125.27,235.687 123.5,232C 120.888,232.359 118.221,232.859 115.5,233.5C 113.996,230.328 112.329,227.162 110.5,224C 111.956,223.577 112.456,222.744 112,221.5C 110.855,220.316 109.688,220.316 108.5,221.5C 108.582,211.557 108.749,201.557 109,191.5C 109.533,187.554 111.366,184.388 114.5,182C 113.167,181.333 112.167,180.333 111.5,179C 112.307,174.729 113.974,170.895 116.5,167.5C 114.228,166.652 111.895,165.319 109.5,163.5C 109.663,161.143 109.497,158.81 109,156.5C 108.333,157.167 107.667,157.833 107,158.5C 104.684,154.053 105.35,150.053 109,146.5C 109.297,143.086 109.964,139.753 111,136.5C 111.667,137.167 112.333,137.833 113,138.5C 114.119,135.943 114.285,133.443 113.5,131C 115.918,129.081 117.251,126.581 117.5,123.5C 116.96,117.711 115.96,112.044 114.5,106.5C 116.06,106.519 117.56,106.852 119,107.5C 120.301,106.902 121.135,105.902 121.5,104.5C 119.604,103.534 117.604,103.201 115.5,103.5C 115.5,101.833 115.5,100.167 115.5,98.5C 116.712,99.2299 117.712,100.23 118.5,101.5C 123.218,92.9463 129.551,85.7796 137.5,80C 138.332,79.3123 138.998,79.479 139.5,80.5C 137.395,82.5916 135.728,84.9249 134.5,87.5 Z"/></g>
<g><path style="opacity:1" fill="#754325" d="M 317.5,161.5 C 319.524,164.502 322.19,165.169 325.5,163.5C 354.806,165.342 384.139,167.009 413.5,168.5C 446.371,172.286 476.371,183.453 503.5,202C 517.593,213.416 529.093,226.916 538,242.5C 539.545,246.9 541.045,251.233 542.5,255.5C 542.648,259.261 543.648,262.761 545.5,266C 544.692,266.308 544.025,266.808 543.5,267.5C 545.737,268.132 547.403,269.465 548.5,271.5C 549.736,272.246 551.07,272.579 552.5,272.5C 552.5,273.5 552.5,274.5 552.5,275.5C 554.861,275.674 557.194,276.007 559.5,276.5C 559.5,277.5 559.5,278.5 559.5,279.5C 558.5,279.5 557.5,279.5 556.5,279.5C 556.643,283.389 558.476,284.389 562,282.5C 564.154,283.32 565.654,284.82 566.5,287C 565.551,287.617 564.718,287.451 564,286.5C 563.955,290.824 565.621,291.49 569,288.5C 568.917,291.119 568.75,293.786 568.5,296.5C 562.565,289.569 555.898,283.236 548.5,277.5C 547.669,284.811 547.169,292.144 547,299.5C 545.812,300.563 545.312,301.897 545.5,303.5C 538.442,318.706 526.442,326.373 509.5,326.5C 496.852,325.418 484.186,324.751 471.5,324.5C 468.833,324.5 466.167,324.5 463.5,324.5C 471.95,322.814 479.783,321.147 487,319.5C 489.817,320.031 492.65,320.364 495.5,320.5C 510.324,323.565 522.991,319.899 533.5,309.5C 540.227,300.741 542.727,290.741 541,279.5C 539.825,273.135 538.492,266.801 537,260.5C 534.059,254.28 530.892,248.28 527.5,242.5C 518.692,226.86 506.692,214.36 491.5,205C 475.214,195.022 457.88,187.522 439.5,182.5C 436.873,181.908 434.206,181.575 431.5,181.5C 421.693,179.017 411.693,177.017 401.5,175.5C 379.709,173.396 357.709,172.229 335.5,172C 326.909,171.371 318.409,170.205 310,168.5C 309.5,168.833 309,169.167 308.5,169.5C 316.592,180.86 322.759,193.194 327,206.5C 328.54,219.124 328.874,231.791 328,244.5C 327.246,247.639 326.246,250.639 325,253.5C 324.902,244.942 324.068,236.609 322.5,228.5C 322.189,219.753 320.523,211.253 317.5,203C 314.897,199.198 313.064,195.032 312,190.5C 309.308,185.097 306.142,180.097 302.5,175.5C 300.25,170.43 297.417,165.764 294,161.5C 292.867,159.789 291.367,159.289 289.5,160C 285.667,165.167 281.167,169.667 276,173.5C 273.962,183.455 270.462,192.788 265.5,201.5C 264.662,201.842 264.328,202.508 264.5,203.5C 264.167,203.5 263.833,203.5 263.5,203.5C 260.222,204.111 258.222,206.111 257.5,209.5C 254.453,210.316 252.787,212.316 252.5,215.5C 249.687,217.3 247.687,219.633 246.5,222.5C 245.022,222.762 243.689,222.429 242.5,221.5C 244.784,219.317 246.118,216.65 246.5,213.5C 248.177,211.46 249.844,209.46 251.5,207.5C 252.766,206.91 254.099,206.41 255.5,206C 261.799,197.897 267.466,189.397 272.5,180.5C 273.641,177.245 274.474,173.911 275,170.5C 277.188,168.312 279.355,166.145 281.5,164C 282.609,161.953 283.276,159.787 283.5,157.5C 286.673,157.599 289.673,156.932 292.5,155.5C 298.268,156.893 303.601,159.06 308.5,162C 311.507,162.301 314.507,162.135 317.5,161.5 Z"/></g>
<g><path style="opacity:1" fill="#332720" d="M 214.5,166.5 C 217.424,170.284 218.257,174.617 217,179.5C 213.157,185.518 207.99,189.851 201.5,192.5C 200.167,192.5 198.833,192.5 197.5,192.5C 190.272,189.775 185.106,184.775 182,177.5C 180.593,172.599 181.76,168.599 185.5,165.5C 195.231,161.446 204.897,161.779 214.5,166.5 Z"/></g>
<g><path style="opacity:1" fill="#afa797" d="M 191.5,168.5 C 196.985,167.348 202.651,167.182 208.5,168C 209.357,168.689 210.023,169.522 210.5,170.5C 204.202,171.496 197.868,171.83 191.5,171.5C 196.651,170.673 201.984,170.173 207.5,170C 202.355,168.554 197.021,168.054 191.5,168.5 Z"/></g>
<g><path style="opacity:1" fill="#ece8d2" d="M 191.5,168.5 C 197.021,168.054 202.355,168.554 207.5,170C 201.984,170.173 196.651,170.673 191.5,171.5C 189.015,170.74 189.015,169.74 191.5,168.5 Z"/></g>
<g><path style="opacity:1" fill="#bf7f43" d="M 401.5,175.5 C 397.818,175.335 394.152,175.501 390.5,176C 390.957,176.414 391.291,176.914 391.5,177.5C 385.616,179.858 379.616,182.025 373.5,184C 372.953,184.925 372.287,185.758 371.5,186.5C 362.923,189.127 355.59,193.793 349.5,200.5C 348.515,202.772 347.681,205.105 347,207.5C 346.119,225.683 342.119,243.016 335,259.5C 332.132,262.736 329.632,266.236 327.5,270C 326.034,270.635 324.7,271.469 323.5,272.5C 323.167,271.333 322.833,270.167 322.5,269C 323.673,255.505 323.673,242.005 322.5,228.5C 324.068,236.609 324.902,244.942 325,253.5C 326.246,250.639 327.246,247.639 328,244.5C 328.874,231.791 328.54,219.124 327,206.5C 322.759,193.194 316.592,180.86 308.5,169.5C 309,169.167 309.5,168.833 310,168.5C 318.409,170.205 326.909,171.371 335.5,172C 357.709,172.229 379.709,173.396 401.5,175.5 Z"/></g>
<g><path style="opacity:1" fill="#774c2f" d="M 289.5,131.5 C 290.302,149.631 299.635,159.631 317.5,161.5C 314.507,162.135 311.507,162.301 308.5,162C 303.601,159.06 298.268,156.893 292.5,155.5C 289.673,156.932 286.673,157.599 283.5,157.5C 283.276,159.787 282.609,161.953 281.5,164C 279.355,166.145 277.188,168.312 275,170.5C 274.474,173.911 273.641,177.245 272.5,180.5C 267.466,189.397 261.799,197.897 255.5,206C 254.099,206.41 252.766,206.91 251.5,207.5C 253.474,204.518 255.474,201.518 257.5,198.5C 262.182,192.324 266.515,185.824 270.5,179C 268.711,178.48 267.044,178.813 265.5,180C 259.279,184.888 253.779,190.388 249,196.5C 249.527,192.405 250.694,188.405 252.5,184.5C 254.856,181.978 257.023,179.312 259,176.5C 261.926,175.731 264.093,174.065 265.5,171.5C 271.419,167.917 276.752,163.584 281.5,158.5C 278.787,157.095 276.121,155.595 273.5,154C 277.486,153.501 281.486,153.334 285.5,153.5C 287.301,151.039 288.967,148.373 290.5,145.5C 289.557,140.9 289.223,136.233 289.5,131.5 Z"/></g>
<g><path style="opacity:1" fill="#d49c5c" d="M 302.5,175.5 C 306.142,180.097 309.308,185.097 312,190.5C 313.064,195.032 314.897,199.198 317.5,203C 320.523,211.253 322.189,219.753 322.5,228.5C 323.673,242.005 323.673,255.505 322.5,269C 322.833,270.167 323.167,271.333 323.5,272.5C 324.7,271.469 326.034,270.635 327.5,270C 329.632,266.236 332.132,262.736 335,259.5C 342.119,243.016 346.119,225.683 347,207.5C 347.681,205.105 348.515,202.772 349.5,200.5C 355.59,193.793 362.923,189.127 371.5,186.5C 372.287,185.758 372.953,184.925 373.5,184C 379.616,182.025 385.616,179.858 391.5,177.5C 391.291,176.914 390.957,176.414 390.5,176C 394.152,175.501 397.818,175.335 401.5,175.5C 411.693,177.017 421.693,179.017 431.5,181.5C 420.876,181.693 410.21,180.693 399.5,178.5C 399.08,180.674 399.08,182.674 399.5,184.5C 403.377,185.197 407.21,185.864 411,186.5C 413.126,186.209 415.46,185.543 418,184.5C 422.022,184.543 426.355,184.543 431,184.5C 431.483,185.448 431.649,186.448 431.5,187.5C 422.792,188.405 413.958,190.072 405,192.5C 403.355,192.307 401.521,192.14 399.5,192C 398.541,190.536 397.208,189.703 395.5,189.5C 393.181,190.064 390.847,190.564 388.5,191C 391.055,192.258 391.722,194.091 390.5,196.5C 389.186,195.687 388.019,194.687 387,193.5C 386.448,196.197 384.948,198.197 382.5,199.5C 381.167,202.167 381.167,204.833 382.5,207.5C 385.833,202.167 389.167,202.167 392.5,207.5C 397.158,205.402 397.492,202.902 393.5,200C 395.579,199.192 397.579,199.359 399.5,200.5C 396.738,204.923 398.071,206.423 403.5,205C 408.867,201.746 413.7,197.913 418,193.5C 420,194.833 422,194.833 424,193.5C 425.786,195.099 427.953,195.933 430.5,196C 431.337,197.011 431.67,198.178 431.5,199.5C 437.03,199.628 442.363,198.961 447.5,197.5C 447.5,198.5 447.5,199.5 447.5,200.5C 446.167,200.5 444.833,200.5 443.5,200.5C 433.095,200.947 422.762,202.113 412.5,204C 398.206,208.629 388.039,217.796 382,231.5C 378.057,252.71 375.057,274.043 373,295.5C 371.548,302.882 368.048,309.048 362.5,314C 349.796,318.792 338.463,316.625 328.5,307.5C 326.246,303.998 323.746,300.664 321,297.5C 320.495,295.482 319.995,293.482 319.5,291.5C 320.496,291.414 321.329,291.748 322,292.5C 321.937,287.858 321.604,283.191 321,278.5C 320.111,279.888 319.611,279.722 319.5,278C 319.96,276.699 320.294,275.366 320.5,274C 319.381,267.878 318.714,261.711 318.5,255.5C 315.53,255.254 314.197,253.588 314.5,250.5C 313.5,250.5 312.5,250.5 311.5,250.5C 311.5,249.5 311.5,248.5 311.5,247.5C 306.301,246.257 300.968,245.257 295.5,244.5C 295.649,243.448 295.483,242.448 295,241.5C 294.167,243.167 293.333,244.833 292.5,246.5C 296.107,247.489 299.774,247.823 303.5,247.5C 303.5,250.833 303.5,254.167 303.5,257.5C 300.833,257.5 298.167,257.5 295.5,257.5C 295.662,259.527 295.495,261.527 295,263.5C 294.503,260.854 294.336,258.187 294.5,255.5C 291.5,255.5 288.5,255.5 285.5,255.5C 285.335,252.482 285.502,249.482 286,246.5C 287.294,246.899 288.794,246.899 290.5,246.5C 288.663,241.652 287.329,236.652 286.5,231.5C 285.52,234.086 285.187,236.753 285.5,239.5C 284.167,239.5 282.833,239.5 281.5,239.5C 281.649,238.448 281.483,237.448 281,236.5C 280.333,235.167 279.667,235.167 279,236.5C 278.828,243.013 278.328,249.347 277.5,255.5C 277.823,249.31 277.49,243.31 276.5,237.5C 279.895,230.313 282.895,222.979 285.5,215.5C 292.476,202.547 296.476,188.547 297.5,173.5C 299.514,173.392 301.18,174.058 302.5,175.5 Z"/></g>
<g><path style="opacity:1" fill="#c18245" d="M 302.5,175.5 C 301.18,174.058 299.514,173.392 297.5,173.5C 296.476,188.547 292.476,202.547 285.5,215.5C 285.5,210.833 285.5,206.167 285.5,201.5C 284.5,201.5 283.5,201.5 282.5,201.5C 282.5,200.167 282.5,198.833 282.5,197.5C 278.012,197.44 274.012,198.774 270.5,201.5C 269.749,200.624 269.249,199.624 269,198.5C 268.578,200.426 267.411,201.426 265.5,201.5C 270.462,192.788 273.962,183.455 276,173.5C 281.167,169.667 285.667,165.167 289.5,160C 291.367,159.289 292.867,159.789 294,161.5C 297.417,165.764 300.25,170.43 302.5,175.5 Z"/></g>
<g><path style="opacity:1" fill="#d19c5d" d="M 282.5,201.5 C 281.066,207.954 278.732,213.954 275.5,219.5C 273.634,214.413 271.467,209.413 269,204.5C 267.774,202.452 266.274,202.119 264.5,203.5C 264.328,202.508 264.662,201.842 265.5,201.5C 267.411,201.426 268.578,200.426 269,198.5C 269.249,199.624 269.749,200.624 270.5,201.5C 274.012,198.774 278.012,197.44 282.5,197.5C 282.5,198.833 282.5,200.167 282.5,201.5 Z"/></g>
<g><path style="opacity:1" fill="#f6e9ce" d="M 257.5,198.5 C 255.474,201.518 253.474,204.518 251.5,207.5C 249.844,209.46 248.177,211.46 246.5,213.5C 236.482,224.343 225.816,234.51 214.5,244C 234.807,235.546 251.14,222.046 263.5,203.5C 263.833,203.5 264.167,203.5 264.5,203.5C 266.274,202.119 267.774,202.452 269,204.5C 271.467,209.413 273.634,214.413 275.5,219.5C 271.402,228.116 266.235,236.116 260,243.5C 248.956,254.372 238.456,265.038 228.5,275.5C 247.305,266.132 263.305,253.465 276.5,237.5C 277.49,243.31 277.823,249.31 277.5,255.5C 275.116,260.621 272.949,265.954 271,271.5C 268.333,275.5 265.667,279.5 263,283.5C 254.229,292.107 245.063,300.107 235.5,307.5C 229.371,306.678 223.204,306.011 217,305.5C 201.431,306.849 185.931,308.349 170.5,310C 163.303,304.961 156.303,299.627 149.5,294C 146.567,291.736 144.4,288.902 143,285.5C 140.603,282.6 137.77,280.267 134.5,278.5C 132.812,284.104 131.312,289.77 130,295.5C 125.993,297.12 122.493,296.453 119.5,293.5C 115.87,279.517 114.703,265.183 116,250.5C 117.351,244.692 119.018,239.025 121,233.5C 122.999,236.988 125.166,240.321 127.5,243.5C 127.5,243.833 127.5,244.167 127.5,244.5C 127.388,250.817 129.054,256.483 132.5,261.5C 136.766,270.496 142.433,278.663 149.5,286C 151.025,287.009 152.692,287.509 154.5,287.5C 153.047,268.869 151.88,250.202 151,231.5C 147.48,218.788 141.646,207.455 133.5,197.5C 133.369,196.624 133.702,195.957 134.5,195.5C 139.362,199.367 144.695,202.367 150.5,204.5C 160.913,210.413 168.746,218.746 174,229.5C 174.167,231.167 174.333,232.833 174.5,234.5C 173.954,237.566 173.288,240.566 172.5,243.5C 192.153,239.672 210.486,232.506 227.5,222C 230.876,218.622 234.543,215.622 238.5,213C 241.097,209.281 244.263,206.114 248,203.5C 249.96,200.415 251.793,197.248 253.5,194C 255.947,194.288 257.28,195.788 257.5,198.5 Z"/></g>
<g><path style="opacity:1" fill="#e3cca8" d="M 161.5,174.5 C 160.655,180.845 161.488,187.179 164,193.5C 166.739,201.577 172.239,206.077 180.5,207C 181.743,208.154 182.743,209.488 183.5,211C 194.178,215.478 204.845,215.478 215.5,211C 218.961,207.218 223.294,204.885 228.5,204C 231.433,201.736 233.6,198.902 235,195.5C 236.372,189.673 237.872,184.006 239.5,178.5C 239.337,180.857 239.503,183.19 240,185.5C 243.833,182.333 247.667,179.167 251.5,176C 256.335,174.897 261.001,173.397 265.5,171.5C 264.093,174.065 261.926,175.731 259,176.5C 257.023,179.312 254.856,181.978 252.5,184.5C 250.694,188.405 249.527,192.405 249,196.5C 253.779,190.388 259.279,184.888 265.5,180C 267.044,178.813 268.711,178.48 270.5,179C 266.515,185.824 262.182,192.324 257.5,198.5C 257.28,195.788 255.947,194.288 253.5,194C 251.793,197.248 249.96,200.415 248,203.5C 244.263,206.114 241.097,209.281 238.5,213C 234.543,215.622 230.876,218.622 227.5,222C 210.486,232.506 192.153,239.672 172.5,243.5C 173.288,240.566 173.954,237.566 174.5,234.5C 174.333,232.833 174.167,231.167 174,229.5C 168.746,218.746 160.913,210.413 150.5,204.5C 144.695,202.367 139.362,199.367 134.5,195.5C 133.702,195.957 133.369,196.624 133.5,197.5C 130.334,191.148 127.667,184.481 125.5,177.5C 125.957,176.702 126.624,176.369 127.5,176.5C 136.085,181.253 143.252,187.587 149,195.5C 149.667,193.833 149.667,192.167 149,190.5C 146.059,185.067 142.559,180.067 138.5,175.5C 141.516,176.343 144.183,177.843 146.5,180C 150.648,181.883 154.981,183.05 159.5,183.5C 159.334,179.486 159.501,175.486 160,171.5C 161.039,172.244 161.539,173.244 161.5,174.5 Z"/></g>
<g><path style="opacity:1" fill="#784c2f" d="M 239.5,178.5 C 237.872,184.006 236.372,189.673 235,195.5C 233.6,198.902 231.433,201.736 228.5,204C 223.294,204.885 218.961,207.218 215.5,211C 204.845,215.478 194.178,215.478 183.5,211C 182.743,209.488 181.743,208.154 180.5,207C 172.239,206.077 166.739,201.577 164,193.5C 161.488,187.179 160.655,180.845 161.5,174.5C 163.517,180.91 165.684,187.243 168,193.5C 169.061,196.562 170.894,199.062 173.5,201C 178.239,201.726 182.905,201.393 187.5,200C 189.957,198.438 192.624,197.438 195.5,197C 197.037,195.89 197.703,194.39 197.5,192.5C 198.833,192.5 200.167,192.5 201.5,192.5C 201.297,194.39 201.963,195.89 203.5,197C 206.167,198.333 208.833,199.667 211.5,201C 220.781,203.77 227.614,200.936 232,192.5C 234.035,185.677 236.368,179.01 239,172.5C 239.495,174.473 239.662,176.473 239.5,178.5 Z"/></g>
<g><path style="opacity:1" fill="#dcc1a0" d="M 194.5,201.5 C 201.489,200.83 207.822,202.497 213.5,206.5C 212.335,207.584 211.002,208.417 209.5,209C 201.714,211.455 194.214,210.955 187,207.5C 186.517,206.552 186.351,205.552 186.5,204.5C 189.21,203.494 191.876,202.494 194.5,201.5 Z"/></g>
<g><path style="opacity:1" fill="#d49e5d" d="M 127.5,176.5 C 126.624,176.369 125.957,176.702 125.5,177.5C 127.667,184.481 130.334,191.148 133.5,197.5C 133.433,199.401 133.767,201.234 134.5,203C 137.052,205.266 138.719,208.099 139.5,211.5C 141.512,212.452 142.512,214.119 142.5,216.5C 142.333,217.833 142.167,219.167 142,220.5C 141.667,220.167 141.333,219.833 141,219.5C 135.932,223.022 136.432,224.188 142.5,223C 143,222.5 143.5,222 144,221.5C 143.796,226.087 145.462,229.754 149,232.5C 149.533,248.189 150.366,263.855 151.5,279.5C 151.167,280.5 150.833,281.5 150.5,282.5C 144.87,279.035 140.87,274.202 138.5,268C 138.844,266.635 139.511,265.468 140.5,264.5C 138.956,263.378 137.623,263.711 136.5,265.5C 135.479,263.812 134.145,262.479 132.5,261.5C 129.054,256.483 127.388,250.817 127.5,244.5C 129.92,248.1 132.586,251.6 135.5,255C 136.483,255.591 137.15,255.257 137.5,254C 132.207,242.16 127.54,229.994 123.5,217.5C 122.635,216.417 121.635,216.251 120.5,217C 119.02,219.646 117.687,219.812 116.5,217.5C 115.386,208.195 115.219,198.862 116,189.5C 116.259,183.131 117.759,177.131 120.5,171.5C 122.618,173.642 124.952,175.308 127.5,176.5 Z"/></g>
<g><path style="opacity:1" fill="#d39c5c" d="M 439.5,182.5 C 457.88,187.522 475.214,195.022 491.5,205C 506.692,214.36 518.692,226.86 527.5,242.5C 528.028,243.847 528.195,245.181 528,246.5C 523.586,245.697 519.086,245.197 514.5,245C 507.833,242 501.167,239 494.5,236C 492.866,235.506 491.199,235.34 489.5,235.5C 497.782,250.258 506.615,264.592 516,278.5C 520.681,283.349 525.515,288.015 530.5,292.5C 534.223,297.716 535.223,303.383 533.5,309.5C 522.991,319.899 510.324,323.565 495.5,320.5C 493.401,319.388 491.067,318.721 488.5,318.5C 488.5,318.167 488.5,317.833 488.5,317.5C 487.341,315.75 485.674,314.75 483.5,314.5C 455.773,310.958 435.606,296.625 423,271.5C 422.502,268.518 422.335,265.518 422.5,262.5C 424.164,266.705 425.997,271.039 428,275.5C 428.779,276.728 429.779,277.728 431,278.5C 432.465,277.67 433.965,277.504 435.5,278C 437.121,280.166 437.955,282.666 438,285.5C 438.667,282.833 439.333,282.833 440,285.5C 439.846,280.603 441.179,275.936 444,271.5C 444.497,268.854 444.664,266.187 444.5,263.5C 442.167,263.5 439.833,263.5 437.5,263.5C 437.5,262.5 437.5,261.5 437.5,260.5C 440.833,260.5 444.167,260.5 447.5,260.5C 447.238,261.978 447.571,263.311 448.5,264.5C 449.736,263.754 451.07,263.421 452.5,263.5C 452.5,262.5 452.5,261.5 452.5,260.5C 454.604,260.799 456.604,260.466 458.5,259.5C 456.525,257.455 456.525,255.788 458.5,254.5C 458,254.167 457.5,253.833 457,253.5C 453.175,254.794 449.341,254.794 445.5,253.5C 444.062,253.719 442.729,254.219 441.5,255C 444.482,255.498 447.482,255.665 450.5,255.5C 450.5,256.5 450.5,257.5 450.5,258.5C 446.818,258.665 443.152,258.499 439.5,258C 439.108,255.646 439.108,253.146 439.5,250.5C 436.833,250.5 434.167,250.5 431.5,250.5C 431.5,249.5 431.5,248.5 431.5,247.5C 432.5,247.5 433.5,247.5 434.5,247.5C 434.5,244.833 434.5,242.167 434.5,239.5C 435.833,239.5 437.167,239.5 438.5,239.5C 438.5,242.167 438.5,244.833 438.5,247.5C 440.905,247.866 443.238,248.533 445.5,249.5C 449.837,248.251 454.171,248.251 458.5,249.5C 459.207,246.214 459.54,242.881 459.5,239.5C 458.127,239.657 456.793,239.49 455.5,239C 466.167,236.667 466.167,234.333 455.5,232C 456.91,231.632 457.91,230.799 458.5,229.5C 455.231,227.84 451.897,227.506 448.5,228.5C 447.167,227.5 447.167,226.5 448.5,225.5C 455.671,224.335 463.004,224.335 470.5,225.5C 476.11,225.644 481.277,224.311 486,221.5C 486.5,221.833 487,222.167 487.5,222.5C 485.144,223.654 484.977,224.987 487,226.5C 488.491,224.996 490.324,224.163 492.5,224C 489.949,222.484 490.282,221.651 493.5,221.5C 493.5,220.167 493.5,218.833 493.5,217.5C 492.325,217.719 491.325,217.386 490.5,216.5C 492.491,213.032 494.825,212.699 497.5,215.5C 498.833,214.167 498.833,212.833 497.5,211.5C 495.868,210.703 494.368,209.703 493,208.5C 492.5,208.667 492,208.833 491.5,209C 492.357,209.689 493.023,210.522 493.5,211.5C 491.046,212.886 489.046,212.386 487.5,210C 487.905,209.055 488.572,208.388 489.5,208C 487.526,204.789 484.859,203.789 481.5,205C 480.874,204.25 480.374,203.416 480,202.5C 474.554,203.806 469.054,203.806 463.5,202.5C 466.086,201.52 468.753,201.187 471.5,201.5C 471.5,200.167 471.5,198.833 471.5,197.5C 462.857,191.669 453.524,187.835 443.5,186C 441.456,185.502 440.122,184.335 439.5,182.5 Z"/></g>
<g><path style="opacity:1" fill="#784e31" d="M 263.5,203.5 C 251.14,222.046 234.807,235.546 214.5,244C 225.816,234.51 236.482,224.343 246.5,213.5C 246.118,216.65 244.784,219.317 242.5,221.5C 243.689,222.429 245.022,222.762 246.5,222.5C 247.687,219.633 249.687,217.3 252.5,215.5C 252.787,212.316 254.453,210.316 257.5,209.5C 258.222,206.111 260.222,204.111 263.5,203.5 Z"/></g>
<g><path style="opacity:1" fill="#d49d5c" d="M 431.5,181.5 C 434.206,181.575 436.873,181.908 439.5,182.5C 440.122,184.335 441.456,185.502 443.5,186C 453.524,187.835 462.857,191.669 471.5,197.5C 471.5,198.833 471.5,200.167 471.5,201.5C 468.753,201.187 466.086,201.52 463.5,202.5C 469.054,203.806 474.554,203.806 480,202.5C 480.374,203.416 480.874,204.25 481.5,205C 484.859,203.789 487.526,204.789 489.5,208C 488.572,208.388 487.905,209.055 487.5,210C 489.046,212.386 491.046,212.886 493.5,211.5C 493.023,210.522 492.357,209.689 491.5,209C 492,208.833 492.5,208.667 493,208.5C 494.368,209.703 495.868,210.703 497.5,211.5C 498.833,212.833 498.833,214.167 497.5,215.5C 494.825,212.699 492.491,213.032 490.5,216.5C 491.325,217.386 492.325,217.719 493.5,217.5C 493.5,218.833 493.5,220.167 493.5,221.5C 490.282,221.651 489.949,222.484 492.5,224C 490.324,224.163 488.491,224.996 487,226.5C 484.977,224.987 485.144,223.654 487.5,222.5C 487,222.167 486.5,221.833 486,221.5C 481.277,224.311 476.11,225.644 470.5,225.5C 463.004,224.335 455.671,224.335 448.5,225.5C 447.167,226.5 447.167,227.5 448.5,228.5C 451.897,227.506 455.231,227.84 458.5,229.5C 457.91,230.799 456.91,231.632 455.5,232C 466.167,234.333 466.167,236.667 455.5,239C 456.793,239.49 458.127,239.657 459.5,239.5C 459.54,242.881 459.207,246.214 458.5,249.5C 454.171,248.251 449.837,248.251 445.5,249.5C 443.238,248.533 440.905,247.866 438.5,247.5C 438.5,244.833 438.5,242.167 438.5,239.5C 437.167,239.5 435.833,239.5 434.5,239.5C 434.5,242.167 434.5,244.833 434.5,247.5C 433.5,247.5 432.5,247.5 431.5,247.5C 431.5,248.5 431.5,249.5 431.5,250.5C 434.167,250.5 436.833,250.5 439.5,250.5C 439.108,253.146 439.108,255.646 439.5,258C 443.152,258.499 446.818,258.665 450.5,258.5C 450.5,257.5 450.5,256.5 450.5,255.5C 447.482,255.665 444.482,255.498 441.5,255C 442.729,254.219 444.062,253.719 445.5,253.5C 449.341,254.794 453.175,254.794 457,253.5C 457.5,253.833 458,254.167 458.5,254.5C 456.525,255.788 456.525,257.455 458.5,259.5C 456.604,260.466 454.604,260.799 452.5,260.5C 452.5,261.5 452.5,262.5 452.5,263.5C 451.07,263.421 449.736,263.754 448.5,264.5C 447.571,263.311 447.238,261.978 447.5,260.5C 444.167,260.5 440.833,260.5 437.5,260.5C 437.5,261.5 437.5,262.5 437.5,263.5C 439.833,263.5 442.167,263.5 444.5,263.5C 444.664,266.187 444.497,268.854 444,271.5C 441.179,275.936 439.846,280.603 440,285.5C 439.333,282.833 438.667,282.833 438,285.5C 437.955,282.666 437.121,280.166 435.5,278C 433.965,277.504 432.465,277.67 431,278.5C 429.779,277.728 428.779,276.728 428,275.5C 425.997,271.039 424.164,266.705 422.5,262.5C 422.837,256.47 423.504,250.47 424.5,244.5C 424.76,242.382 425.76,240.716 427.5,239.5C 428.251,231.259 432.085,224.926 439,220.5C 440.516,223.006 442.682,223.84 445.5,223C 444.484,221.323 443.484,219.657 442.5,218C 444.118,216.041 445.784,214.041 447.5,212C 446.483,209.527 446.483,207.027 447.5,204.5C 445.585,204.784 443.919,204.451 442.5,203.5C 444.481,202.895 444.815,201.895 443.5,200.5C 444.833,200.5 446.167,200.5 447.5,200.5C 447.5,199.5 447.5,198.5 447.5,197.5C 442.363,198.961 437.03,199.628 431.5,199.5C 431.67,198.178 431.337,197.011 430.5,196C 427.953,195.933 425.786,195.099 424,193.5C 422,194.833 420,194.833 418,193.5C 413.7,197.913 408.867,201.746 403.5,205C 398.071,206.423 396.738,204.923 399.5,200.5C 397.579,199.359 395.579,199.192 393.5,200C 397.492,202.902 397.158,205.402 392.5,207.5C 389.167,202.167 385.833,202.167 382.5,207.5C 381.167,204.833 381.167,202.167 382.5,199.5C 384.948,198.197 386.448,196.197 387,193.5C 388.019,194.687 389.186,195.687 390.5,196.5C 391.722,194.091 391.055,192.258 388.5,191C 390.847,190.564 393.181,190.064 395.5,189.5C 397.208,189.703 398.541,190.536 399.5,192C 401.521,192.14 403.355,192.307 405,192.5C 413.958,190.072 422.792,188.405 431.5,187.5C 431.649,186.448 431.483,185.448 431,184.5C 426.355,184.543 422.022,184.543 418,184.5C 415.46,185.543 413.126,186.209 411,186.5C 407.21,185.864 403.377,185.197 399.5,184.5C 399.08,182.674 399.08,180.674 399.5,178.5C 410.21,180.693 420.876,181.693 431.5,181.5 Z"/></g>
<g><path style="opacity:1" fill="#f5e9cf" d="M 422.5,262.5 C 422.335,265.518 422.502,268.518 423,271.5C 435.606,296.625 455.773,310.958 483.5,314.5C 484.859,316.009 484.359,316.676 482,316.5C 471.573,314.707 461.073,313.541 450.5,313C 438.061,309.988 426.394,305.321 415.5,299C 410.936,293.718 405.936,288.884 400.5,284.5C 389.652,257.692 394.986,234.858 416.5,216C 420.145,212.839 424.145,210.339 428.5,208.5C 434.123,206.933 439.789,206.599 445.5,207.5C 438.17,216.179 431.336,225.179 425,234.5C 421.493,243.714 420.659,253.047 422.5,262.5 Z"/></g>
<g><path style="opacity:1" fill="#d2a46c" d="M 441.5,203.5 C 441.833,203.5 442.167,203.5 442.5,203.5C 443.919,204.451 445.585,204.784 447.5,204.5C 446.483,207.027 446.483,209.527 447.5,212C 445.784,214.041 444.118,216.041 442.5,218C 443.484,219.657 444.484,221.323 445.5,223C 442.682,223.84 440.516,223.006 439,220.5C 432.085,224.926 428.251,231.259 427.5,239.5C 425.76,240.716 424.76,242.382 424.5,244.5C 423.504,250.47 422.837,256.47 422.5,262.5C 420.659,253.047 421.493,243.714 425,234.5C 431.336,225.179 438.17,216.179 445.5,207.5C 439.789,206.599 434.123,206.933 428.5,208.5C 432.188,205.558 436.521,203.891 441.5,203.5 Z"/></g>
<g><path style="opacity:1" fill="#c18245" d="M 443.5,200.5 C 444.815,201.895 444.481,202.895 442.5,203.5C 442.167,203.5 441.833,203.5 441.5,203.5C 441.611,202.883 441.944,202.383 442.5,202C 436.826,202.466 431.159,203.466 425.5,205C 394.769,219.618 382.769,243.784 389.5,277.5C 385.789,283.916 382.289,290.583 379,297.5C 374.76,302.317 370.76,307.317 367,312.5C 352.502,325.822 336.336,328.155 318.5,319.5C 318.167,319.5 317.833,319.5 317.5,319.5C 317.5,308.833 317.5,298.167 317.5,287.5C 318.674,288.514 319.34,289.847 319.5,291.5C 319.995,293.482 320.495,295.482 321,297.5C 323.746,300.664 326.246,303.998 328.5,307.5C 338.463,316.625 349.796,318.792 362.5,314C 368.048,309.048 371.548,302.882 373,295.5C 375.057,274.043 378.057,252.71 382,231.5C 388.039,217.796 398.206,208.629 412.5,204C 422.762,202.113 433.095,200.947 443.5,200.5 Z"/></g>
<g><path style="opacity:1" fill="#d39c5b" d="M 319.5,291.5 C 319.34,289.847 318.674,288.514 317.5,287.5C 316.538,285.014 315.705,285.014 315,287.5C 314.417,291.832 313.917,296.165 313.5,300.5C 312.238,309.406 310.738,318.406 309,327.5C 307.079,337.768 301.579,345.602 292.5,351C 271.34,353.07 250.34,356.07 229.5,360C 234.204,362.072 239.204,363.072 244.5,363C 246.431,363.902 248.097,365.069 249.5,366.5C 248.167,366.5 246.833,366.5 245.5,366.5C 245.389,365.883 245.056,365.383 244.5,365C 232.689,363.714 221.356,360.881 210.5,356.5C 203.066,353.739 197.066,349.073 192.5,342.5C 191.583,339.242 191.249,335.909 191.5,332.5C 190.167,332.5 188.833,332.5 187.5,332.5C 205.241,328.142 222.575,322.309 239.5,315C 247.5,314.667 255.5,314.333 263.5,314C 253.208,308.955 242.541,308.122 231.5,311.5C 232.527,309.806 233.861,308.473 235.5,307.5C 245.063,300.107 254.229,292.107 263,283.5C 265.667,279.5 268.333,275.5 271,271.5C 272.949,265.954 275.116,260.621 277.5,255.5C 278.328,249.347 278.828,243.013 279,236.5C 279.667,235.167 280.333,235.167 281,236.5C 281.483,237.448 281.649,238.448 281.5,239.5C 282.833,239.5 284.167,239.5 285.5,239.5C 285.187,236.753 285.52,234.086 286.5,231.5C 287.329,236.652 288.663,241.652 290.5,246.5C 288.794,246.899 287.294,246.899 286,246.5C 285.502,249.482 285.335,252.482 285.5,255.5C 288.5,255.5 291.5,255.5 294.5,255.5C 294.336,258.187 294.503,260.854 295,263.5C 295.495,261.527 295.662,259.527 295.5,257.5C 298.167,257.5 300.833,257.5 303.5,257.5C 303.5,254.167 303.5,250.833 303.5,247.5C 299.774,247.823 296.107,247.489 292.5,246.5C 293.333,244.833 294.167,243.167 295,241.5C 295.483,242.448 295.649,243.448 295.5,244.5C 300.968,245.257 306.301,246.257 311.5,247.5C 311.5,248.5 311.5,249.5 311.5,250.5C 312.5,250.5 313.5,250.5 314.5,250.5C 314.197,253.588 315.53,255.254 318.5,255.5C 318.714,261.711 319.381,267.878 320.5,274C 320.294,275.366 319.96,276.699 319.5,278C 319.611,279.722 320.111,279.888 321,278.5C 321.604,283.191 321.937,287.858 322,292.5C 321.329,291.748 320.496,291.414 319.5,291.5 Z"/></g>
<g><path style="opacity:1" fill="#c18145" d="M 527.5,242.5 C 530.892,248.28 534.059,254.28 537,260.5C 538.492,266.801 539.825,273.135 541,279.5C 542.727,290.741 540.227,300.741 533.5,309.5C 535.223,303.383 534.223,297.716 530.5,292.5C 525.515,288.015 520.681,283.349 516,278.5C 506.615,264.592 497.782,250.258 489.5,235.5C 491.199,235.34 492.866,235.506 494.5,236C 501.167,239 507.833,242 514.5,245C 519.086,245.197 523.586,245.697 528,246.5C 528.195,245.181 528.028,243.847 527.5,242.5 Z"/></g>
<g><path style="opacity:1" fill="#774b2d" d="M 282.5,201.5 C 283.5,201.5 284.5,201.5 285.5,201.5C 285.5,206.167 285.5,210.833 285.5,215.5C 282.895,222.979 279.895,230.313 276.5,237.5C 263.305,253.465 247.305,266.132 228.5,275.5C 238.456,265.038 248.956,254.372 260,243.5C 266.235,236.116 271.402,228.116 275.5,219.5C 278.732,213.954 281.066,207.954 282.5,201.5 Z"/></g>
<g><path style="opacity:1" fill="#d4ab74" d="M 133.5,197.5 C 141.646,207.455 147.48,218.788 151,231.5C 151.88,250.202 153.047,268.869 154.5,287.5C 152.692,287.509 151.025,287.009 149.5,286C 142.433,278.663 136.766,270.496 132.5,261.5C 134.145,262.479 135.479,263.812 136.5,265.5C 137.623,263.711 138.956,263.378 140.5,264.5C 139.511,265.468 138.844,266.635 138.5,268C 140.87,274.202 144.87,279.035 150.5,282.5C 150.833,281.5 151.167,280.5 151.5,279.5C 150.366,263.855 149.533,248.189 149,232.5C 145.462,229.754 143.796,226.087 144,221.5C 143.5,222 143,222.5 142.5,223C 136.432,224.188 135.932,223.022 141,219.5C 141.333,219.833 141.667,220.167 142,220.5C 142.167,219.167 142.333,217.833 142.5,216.5C 142.512,214.119 141.512,212.452 139.5,211.5C 138.719,208.099 137.052,205.266 134.5,203C 133.767,201.234 133.433,199.401 133.5,197.5 Z"/></g>
<g><path style="opacity:1" fill="#e2caa6" d="M 235.5,307.5 C 233.861,308.473 232.527,309.806 231.5,311.5C 223.212,313.984 215.212,317.15 207.5,321C 194.742,324.542 181.909,327.708 169,330.5C 160.974,324.14 153.974,316.807 148,308.5C 144.167,302.167 140.333,295.833 136.5,289.5C 138.513,306.849 146.346,321.182 160,332.5C 160.667,333.167 160.667,333.833 160,334.5C 152.769,337.532 145.603,340.699 138.5,344C 129.55,345.18 120.55,345.847 111.5,346C 108.478,346.098 105.811,346.932 103.5,348.5C 101.097,348.448 98.7638,348.781 96.5,349.5C 97.0476,347.606 98.0476,345.94 99.5,344.5C 104.572,339.267 109.406,333.934 114,328.5C 117.466,320.599 114.966,315.766 106.5,314C 103.183,313.502 99.8499,313.335 96.5,313.5C 106.999,309.253 117.332,304.42 127.5,299C 125.19,298.503 122.857,298.337 120.5,298.5C 120.371,296.784 120.038,295.117 119.5,293.5C 122.493,296.453 125.993,297.12 130,295.5C 131.312,289.77 132.812,284.104 134.5,278.5C 137.77,280.267 140.603,282.6 143,285.5C 144.4,288.902 146.567,291.736 149.5,294C 156.303,299.627 163.303,304.961 170.5,310C 185.931,308.349 201.431,306.849 217,305.5C 223.204,306.011 229.371,306.678 235.5,307.5 Z"/></g>
<g><path style="opacity:1" fill="#75452a" d="M 127.5,243.5 C 125.166,240.321 122.999,236.988 121,233.5C 119.018,239.025 117.351,244.692 116,250.5C 114.703,265.183 115.87,279.517 119.5,293.5C 120.038,295.117 120.371,296.784 120.5,298.5C 122.857,298.337 125.19,298.503 127.5,299C 117.332,304.42 106.999,309.253 96.5,313.5C 86.3029,317.6 76.6362,322.766 67.5,329C 57.4037,332.81 47.0703,335.81 36.5,338C 27.6108,341.892 21.9442,348.559 19.5,358C 20.0513,361.661 22.0513,363.828 25.5,364.5C 25.3367,362.143 25.5034,359.81 26,357.5C 27.7658,355.404 29.0991,353.071 30,350.5C 31.439,348.552 33.2723,347.219 35.5,346.5C 36.1667,346.833 36.8333,347.167 37.5,347.5C 36.7401,349.36 35.7401,351.027 34.5,352.5C 33.8826,352.611 33.3826,352.944 33,353.5C 32.006,358.118 31.506,362.785 31.5,367.5C 36.1667,367.5 40.8333,367.5 45.5,367.5C 45.5,365.167 45.5,362.833 45.5,360.5C 46.8333,358.167 48.1667,355.833 49.5,353.5C 50.6266,352.878 51.6266,352.045 52.5,351C 53.635,350.251 54.635,350.417 55.5,351.5C 53.0314,356.498 51.698,361.831 51.5,367.5C 62.0553,368.278 71.722,365.778 80.5,360C 81.7101,358.961 82.7101,357.794 83.5,356.5C 87.4254,353.371 91.7587,351.038 96.5,349.5C 98.7638,348.781 101.097,348.448 103.5,348.5C 115.276,347.01 127.109,346.01 139,345.5C 140.986,345.569 142.486,346.235 143.5,347.5C 140.833,348.833 138.167,350.167 135.5,351.5C 126.435,352.901 117.435,354.734 108.5,357C 102.377,360.789 97.2102,365.622 93,371.5C 92.3333,374.833 92.3333,378.167 93,381.5C 94.0195,382.687 95.1861,383.687 96.5,384.5C 97.5237,377.59 100.857,372.09 106.5,368C 108.345,366.872 110.345,366.372 112.5,366.5C 110.42,368.573 108.754,370.907 107.5,373.5C 106.034,374.347 105.2,375.68 105,377.5C 103.894,381.122 103.561,384.789 104,388.5C 108.401,389.467 112.901,389.8 117.5,389.5C 117.311,385.963 117.977,382.63 119.5,379.5C 121.34,374.806 124.674,372.306 129.5,372C 128.139,373.584 127.472,375.418 127.5,377.5C 126.21,378.058 125.377,379.058 125,380.5C 124.502,383.817 124.335,387.15 124.5,390.5C 130.925,390.87 137.258,390.37 143.5,389C 153.962,383.602 164.295,377.935 174.5,372C 193.444,369.878 212.444,368.378 231.5,367.5C 219.05,369.369 206.383,370.535 193.5,371C 189.62,373.725 185.287,375.392 180.5,376C 189.264,377.093 198.264,377.593 207.5,377.5C 197.968,378.174 188.301,379.008 178.5,380C 170.837,383.829 163.504,388.163 156.5,393C 134.315,401.936 112.315,401.602 90.5,392C 85.7978,388.578 83.7978,383.912 84.5,378C 84.8755,374.468 85.0422,370.968 85,367.5C 81.1952,370.319 77.0285,372.486 72.5,374C 56.1722,375.96 39.8389,375.96 23.5,374C 19.2055,372.879 16.2055,370.379 14.5,366.5C 13.7705,361.87 13.4372,357.203 13.5,352.5C 14.5,352.5 15.5,352.5 16.5,352.5C 16.1924,350.076 16.5258,347.743 17.5,345.5C 19.9987,342.053 23.1653,339.386 27,337.5C 27.4828,336.552 27.6495,335.552 27.5,334.5C 35.985,332.903 44.3183,330.737 52.5,328C 53.2524,327.329 53.5858,326.496 53.5,325.5C 65.8804,320.143 77.8804,313.976 89.5,307C 96.5587,304.318 103.559,301.485 110.5,298.5C 110.833,297.333 111.167,296.167 111.5,295C 105.257,275.031 105.257,255.031 111.5,235C 110.401,230.532 109.401,226.032 108.5,221.5C 109.688,220.316 110.855,220.316 112,221.5C 112.456,222.744 111.956,223.577 110.5,224C 112.329,227.162 113.996,230.328 115.5,233.5C 118.221,232.859 120.888,232.359 123.5,232C 125.27,235.687 126.603,239.521 127.5,243.5 Z"/></g>
<g><path style="opacity:1" fill="#e2c8a3" d="M 389.5,277.5 C 392.604,283.955 395.437,290.621 398,297.5C 403.897,306.235 410.73,314.235 418.5,321.5C 407.515,322.332 396.515,322.832 385.5,323C 372.986,325.349 364.653,332.516 360.5,344.5C 349.999,347.361 339.333,349.361 328.5,350.5C 325.167,350.5 321.833,350.5 318.5,350.5C 318.5,340.167 318.5,329.833 318.5,319.5C 336.336,328.155 352.502,325.822 367,312.5C 370.76,307.317 374.76,302.317 379,297.5C 382.289,290.583 385.789,283.916 389.5,277.5 Z"/></g>
<g><path style="opacity:1" fill="#754628" d="M 441.5,203.5 C 436.521,203.891 432.188,205.558 428.5,208.5C 424.145,210.339 420.145,212.839 416.5,216C 394.986,234.858 389.652,257.692 400.5,284.5C 407.911,302.082 420.078,315.415 437,324.5C 441.059,322.714 445.226,321.381 449.5,320.5C 462.382,318.733 475.382,318.066 488.5,318.5C 491.067,318.721 493.401,319.388 495.5,320.5C 492.65,320.364 489.817,320.031 487,319.5C 479.783,321.147 471.95,322.814 463.5,324.5C 442.049,325.639 425.216,334.973 413,352.5C 410.886,357.06 409.053,361.726 407.5,366.5C 408.993,369.928 411.659,371.928 415.5,372.5C 427.102,378.156 439.435,381.823 452.5,383.5C 471.164,386.125 489.831,386.125 508.5,383.5C 525.202,381.656 540.535,376.156 554.5,367C 559.644,362.187 564.477,357.02 569,351.5C 571.869,345.393 574.036,339.059 575.5,332.5C 576.711,326.295 576.544,319.962 575,313.5C 572.942,307.831 570.775,302.165 568.5,296.5C 568.75,293.786 568.917,291.119 569,288.5C 565.621,291.49 563.955,290.824 564,286.5C 564.718,287.451 565.551,287.617 566.5,287C 565.654,284.82 564.154,283.32 562,282.5C 558.476,284.389 556.643,283.389 556.5,279.5C 557.5,279.5 558.5,279.5 559.5,279.5C 559.5,278.5 559.5,277.5 559.5,276.5C 557.194,276.007 554.861,275.674 552.5,275.5C 552.5,274.5 552.5,273.5 552.5,272.5C 551.07,272.579 549.736,272.246 548.5,271.5C 547.403,269.465 545.737,268.132 543.5,267.5C 544.025,266.808 544.692,266.308 545.5,266C 543.648,262.761 542.648,259.261 542.5,255.5C 544.268,258.606 545.768,261.939 547,265.5C 556.611,272.112 565.278,279.779 573,288.5C 578.38,296.813 581.88,305.813 583.5,315.5C 583.666,321.509 583.499,327.509 583,333.5C 580.272,339.572 578.438,345.905 577.5,352.5C 574.611,359.905 569.944,366.072 563.5,371C 545.696,383.884 525.696,391.217 503.5,393C 472.035,396.551 441.702,392.551 412.5,381C 408.204,379.185 404.204,376.852 400.5,374C 399.536,369.934 399.203,365.767 399.5,361.5C 392.058,359.966 384.391,359.132 376.5,359C 375.167,358 375.167,357 376.5,356C 375.833,355.833 375.167,355.667 374.5,355.5C 371.325,357.091 367.991,358.091 364.5,358.5C 364.579,357.07 364.246,355.736 363.5,354.5C 356.497,352.971 349.83,353.637 343.5,356.5C 342.833,356.5 342.167,356.5 341.5,356.5C 334.159,356.666 326.826,356.5 319.5,356C 316.876,355.424 316.209,354.09 317.5,352C 321.356,351.823 325.023,351.323 328.5,350.5C 339.333,349.361 349.999,347.361 360.5,344.5C 364.653,332.516 372.986,325.349 385.5,323C 396.515,322.832 407.515,322.332 418.5,321.5C 410.73,314.235 403.897,306.235 398,297.5C 395.437,290.621 392.604,283.955 389.5,277.5C 382.769,243.784 394.769,219.618 425.5,205C 431.159,203.466 436.826,202.466 442.5,202C 441.944,202.383 441.611,202.883 441.5,203.5 Z"/></g>
<g><path style="opacity:1" fill="#e3cba9" d="M 400.5,284.5 C 405.936,288.884 410.936,293.718 415.5,299C 426.394,305.321 438.061,309.988 450.5,313C 461.073,313.541 471.573,314.707 482,316.5C 484.359,316.676 484.859,316.009 483.5,314.5C 485.674,314.75 487.341,315.75 488.5,317.5C 478.161,317.334 467.828,317.5 457.5,318C 454.749,318.943 452.083,319.776 449.5,320.5C 445.226,321.381 441.059,322.714 437,324.5C 420.078,315.415 407.911,302.082 400.5,284.5 Z"/></g>
<g><path style="opacity:1" fill="#c18045" d="M 568.5,296.5 C 570.775,302.165 572.942,307.831 575,313.5C 576.544,319.962 576.711,326.295 575.5,332.5C 575.649,331.448 575.483,330.448 575,329.5C 567.058,340.626 556.558,347.959 543.5,351.5C 541.473,351.662 539.473,351.495 537.5,351C 552.437,339.681 557.104,325.014 551.5,307C 550.042,305.248 548.709,303.415 547.5,301.5C 546.818,302.243 546.151,302.909 545.5,303.5C 545.312,301.897 545.812,300.563 547,299.5C 547.169,292.144 547.669,284.811 548.5,277.5C 555.898,283.236 562.565,289.569 568.5,296.5 Z"/></g>
<g><path style="opacity:1" fill="#f5e7cd" d="M 96.5,313.5 C 99.8499,313.335 103.183,313.502 106.5,314C 114.966,315.766 117.466,320.599 114,328.5C 109.406,333.934 104.572,339.267 99.5,344.5C 98.0476,345.94 97.0476,347.606 96.5,349.5C 91.7587,351.038 87.4254,353.371 83.5,356.5C 78.0162,358.379 72.3495,359.546 66.5,360C 62.4589,360.827 58.4589,360.66 54.5,359.5C 56.301,356.465 56.9677,353.131 56.5,349.5C 54.4727,349.338 52.4727,349.505 50.5,350C 49.6634,351.011 49.33,352.178 49.5,353.5C 48.1667,355.833 46.8333,358.167 45.5,360.5C 41.5233,359.741 37.5233,359.075 33.5,358.5C 33.5172,356.435 33.8505,354.435 34.5,352.5C 35.7401,351.027 36.7401,349.36 37.5,347.5C 36.8333,347.167 36.1667,346.833 35.5,346.5C 33.2723,347.219 31.439,348.552 30,350.5C 29.0991,353.071 27.7658,355.404 26,357.5C 25.5034,359.81 25.3367,362.143 25.5,364.5C 22.0513,363.828 20.0513,361.661 19.5,358C 21.9442,348.559 27.6108,341.892 36.5,338C 47.0703,335.81 57.4037,332.81 67.5,329C 76.6362,322.766 86.3029,317.6 96.5,313.5 Z"/></g>
<g><path style="opacity:1" fill="#a98464" d="M 488.5,317.5 C 488.5,317.833 488.5,318.167 488.5,318.5C 475.382,318.066 462.382,318.733 449.5,320.5C 452.083,319.776 454.749,318.943 457.5,318C 467.828,317.5 478.161,317.334 488.5,317.5 Z"/></g>
<g><path style="opacity:1" fill="#774827" d="M 231.5,311.5 C 242.541,308.122 253.208,308.955 263.5,314C 255.5,314.333 247.5,314.667 239.5,315C 222.575,322.309 205.241,328.142 187.5,332.5C 174.446,333.795 162.446,337.962 151.5,345C 148.721,345.561 146.054,346.394 143.5,347.5C 142.486,346.235 140.986,345.569 139,345.5C 127.109,346.01 115.276,347.01 103.5,348.5C 105.811,346.932 108.478,346.098 111.5,346C 120.55,345.847 129.55,345.18 138.5,344C 145.603,340.699 152.769,337.532 160,334.5C 160.667,333.833 160.667,333.167 160,332.5C 146.346,321.182 138.513,306.849 136.5,289.5C 140.333,295.833 144.167,302.167 148,308.5C 153.974,316.807 160.974,324.14 169,330.5C 181.909,327.708 194.742,324.542 207.5,321C 215.212,317.15 223.212,313.984 231.5,311.5 Z"/></g>
<g><path style="opacity:1" fill="#f6e8ce" d="M 463.5,324.5 C 466.167,324.5 468.833,324.5 471.5,324.5C 483.525,330.177 493.858,338.177 502.5,348.5C 502.402,354.964 500.069,360.464 495.5,365C 491.97,367.596 488.303,369.929 484.5,372C 475.402,374.911 466.069,376.078 456.5,375.5C 442.778,375.16 429.111,374.16 415.5,372.5C 411.659,371.928 408.993,369.928 407.5,366.5C 409.053,361.726 410.886,357.06 413,352.5C 425.216,334.973 442.049,325.639 463.5,324.5 Z"/></g>
<g><path style="opacity:1" fill="#76503d" d="M 53.5,325.5 C 53.5858,326.496 53.2524,327.329 52.5,328C 44.3183,330.737 35.985,332.903 27.5,334.5C 27.6495,335.552 27.4828,336.552 27,337.5C 23.1653,339.386 19.9987,342.053 17.5,345.5C 16.5258,347.743 16.1924,350.076 16.5,352.5C 15.5,352.5 14.5,352.5 13.5,352.5C 13.4372,357.203 13.7705,361.87 14.5,366.5C 12.555,364.693 11.555,362.36 11.5,359.5C 12.7489,346.84 19.0823,337.673 30.5,332C 38.1695,329.768 45.8361,327.601 53.5,325.5 Z"/></g>
<g><path style="opacity:1" fill="#d39d5d" d="M 543.5,351.5 C 529.482,356.27 515.815,355.27 502.5,348.5C 493.858,338.177 483.525,330.177 471.5,324.5C 484.186,324.751 496.852,325.418 509.5,326.5C 526.442,326.373 538.442,318.706 545.5,303.5C 546.151,302.909 546.818,302.243 547.5,301.5C 548.709,303.415 550.042,305.248 551.5,307C 557.104,325.014 552.437,339.681 537.5,351C 539.473,351.495 541.473,351.662 543.5,351.5 Z"/></g>
<g><path style="opacity:1" fill="#e0c8a5" d="M 388.5,328.5 C 401.184,328.168 413.851,328.501 426.5,329.5C 420.483,334.684 414.983,340.35 410,346.5C 408.589,348.65 407.755,350.984 407.5,353.5C 395.162,353.667 382.829,353.5 370.5,353C 369.584,352.626 368.75,352.126 368,351.5C 366.771,342.851 369.938,336.351 377.5,332C 381.254,330.691 384.921,329.525 388.5,328.5 Z"/></g>
<g><path style="opacity:1" fill="#f6e9cf" d="M 187.5,332.5 C 188.833,332.5 190.167,332.5 191.5,332.5C 191.249,335.909 191.583,339.242 192.5,342.5C 197.066,349.073 203.066,353.739 210.5,356.5C 210.539,357.583 210.873,358.583 211.5,359.5C 210.167,360.167 208.833,360.833 207.5,361.5C 198.861,362.844 190.194,364.011 181.5,365C 174.578,367.863 167.578,370.53 160.5,373C 157.371,374.399 154.371,376.065 151.5,378C 143.554,379.372 135.554,380.205 127.5,380.5C 127.5,379.5 127.5,378.5 127.5,377.5C 127.472,375.418 128.139,373.584 129.5,372C 124.674,372.306 121.34,374.806 119.5,379.5C 115.812,379.219 112.145,378.719 108.5,378C 107.62,376.644 107.286,375.144 107.5,373.5C 108.754,370.907 110.42,368.573 112.5,366.5C 112.013,365.527 111.513,364.527 111,363.5C 108.186,365.773 105.019,366.606 101.5,366C 104.509,363.667 107.176,361 109.5,358C 117.13,356.975 124.797,356.141 132.5,355.5C 131.975,354.808 131.308,354.308 130.5,354C 132.315,353.243 133.981,352.41 135.5,351.5C 138.167,350.167 140.833,348.833 143.5,347.5C 146.054,346.394 148.721,345.561 151.5,345C 162.446,337.962 174.446,333.795 187.5,332.5 Z"/></g>
<g><path style="opacity:1" fill="#744321" d="M 317.5,287.5 C 317.5,298.167 317.5,308.833 317.5,319.5C 317.666,329.506 317.5,339.506 317,349.5C 316.378,351.731 315.211,353.565 313.5,355C 316.259,357.574 315.926,359.74 312.5,361.5C 311.859,360.007 310.859,359.007 309.5,358.5C 311.993,339.285 313.326,319.951 313.5,300.5C 313.917,296.165 314.417,291.832 315,287.5C 315.705,285.014 316.538,285.014 317.5,287.5 Z"/></g>
<g><path style="opacity:1" fill="#845f4b" d="M 583.5,315.5 C 584.767,324.033 584.6,332.7 583,341.5C 581.648,345.538 579.814,349.205 577.5,352.5C 578.438,345.905 580.272,339.572 583,333.5C 583.499,327.509 583.666,321.509 583.5,315.5 Z"/></g>
<g><path style="opacity:1" fill="#e2cba7" d="M 575.5,332.5 C 574.036,339.059 571.869,345.393 569,351.5C 564.477,357.02 559.644,362.187 554.5,367C 540.535,376.156 525.202,381.656 508.5,383.5C 489.835,384.747 471.169,384.747 452.5,383.5C 439.435,381.823 427.102,378.156 415.5,372.5C 429.111,374.16 442.778,375.16 456.5,375.5C 466.069,376.078 475.402,374.911 484.5,372C 488.303,369.929 491.97,367.596 495.5,365C 500.069,360.464 502.402,354.964 502.5,348.5C 515.815,355.27 529.482,356.27 543.5,351.5C 556.558,347.959 567.058,340.626 575,329.5C 575.483,330.448 575.649,331.448 575.5,332.5 Z"/></g>
<g><path style="opacity:1" fill="#c28244" d="M 313.5,300.5 C 313.326,319.951 311.993,339.285 309.5,358.5C 308.5,358.833 307.833,359.5 307.5,360.5C 306.317,361.504 304.984,362.338 303.5,363C 285.454,364.394 267.454,365.561 249.5,366.5C 248.097,365.069 246.431,363.902 244.5,363C 239.204,363.072 234.204,362.072 229.5,360C 250.34,356.07 271.34,353.07 292.5,351C 301.579,345.602 307.079,337.768 309,327.5C 310.738,318.406 312.238,309.406 313.5,300.5 Z"/></g>
<g><path style="opacity:1" fill="#795136" d="M 399.5,361.5 C 387.36,362.139 375.36,361.306 363.5,359C 362.261,356.76 360.428,355.26 358,354.5C 353.191,355.349 348.357,356.016 343.5,356.5C 349.83,353.637 356.497,352.971 363.5,354.5C 364.246,355.736 364.579,357.07 364.5,358.5C 367.991,358.091 371.325,357.091 374.5,355.5C 375.167,355.667 375.833,355.833 376.5,356C 375.167,357 375.167,358 376.5,359C 384.391,359.132 392.058,359.966 399.5,361.5 Z"/></g>
<g><path style="opacity:0.039" fill="#c2b4a6" d="M 334.5,357.5 C 329.056,358.884 323.389,359.55 317.5,359.5C 322.944,358.116 328.611,357.45 334.5,357.5 Z"/></g>
<g><path style="opacity:1" fill="#e0caab" d="M 34.5,352.5 C 33.8505,354.435 33.5172,356.435 33.5,358.5C 37.5233,359.075 41.5233,359.741 45.5,360.5C 45.5,362.833 45.5,365.167 45.5,367.5C 40.8333,367.5 36.1667,367.5 31.5,367.5C 31.506,362.785 32.006,358.118 33,353.5C 33.3826,352.944 33.8826,352.611 34.5,352.5 Z"/></g>
<g><path style="opacity:1" fill="#e4cdac" d="M 83.5,356.5 C 82.7101,357.794 81.7101,358.961 80.5,360C 71.722,365.778 62.0553,368.278 51.5,367.5C 51.698,361.831 53.0314,356.498 55.5,351.5C 54.635,350.417 53.635,350.251 52.5,351C 51.6266,352.045 50.6266,352.878 49.5,353.5C 49.33,352.178 49.6634,351.011 50.5,350C 52.4727,349.505 54.4727,349.338 56.5,349.5C 56.9677,353.131 56.301,356.465 54.5,359.5C 58.4589,360.66 62.4589,360.827 66.5,360C 72.3495,359.546 78.0162,358.379 83.5,356.5 Z"/></g>
<g><path style="opacity:1" fill="#e1caa8" d="M 210.5,356.5 C 221.356,360.881 232.689,363.714 244.5,365C 245.056,365.383 245.389,365.883 245.5,366.5C 240.859,367.127 236.193,367.46 231.5,367.5C 212.444,368.378 193.444,369.878 174.5,372C 164.295,377.935 153.962,383.602 143.5,389C 137.258,390.37 130.925,390.87 124.5,390.5C 124.335,387.15 124.502,383.817 125,380.5C 125.377,379.058 126.21,378.058 127.5,377.5C 127.5,378.5 127.5,379.5 127.5,380.5C 135.554,380.205 143.554,379.372 151.5,378C 154.371,376.065 157.371,374.399 160.5,373C 167.578,370.53 174.578,367.863 181.5,365C 190.194,364.011 198.861,362.844 207.5,361.5C 208.833,360.833 210.167,360.167 211.5,359.5C 210.873,358.583 210.539,357.583 210.5,356.5 Z"/></g>
<g><path style="opacity:1" fill="#ebd7bc" d="M 135.5,351.5 C 133.981,352.41 132.315,353.243 130.5,354C 131.308,354.308 131.975,354.808 132.5,355.5C 124.797,356.141 117.13,356.975 109.5,358C 107.176,361 104.509,363.667 101.5,366C 105.019,366.606 108.186,365.773 111,363.5C 111.513,364.527 112.013,365.527 112.5,366.5C 110.345,366.372 108.345,366.872 106.5,368C 100.857,372.09 97.5237,377.59 96.5,384.5C 95.1861,383.687 94.0195,382.687 93,381.5C 92.3333,378.167 92.3333,374.833 93,371.5C 97.2102,365.622 102.377,360.789 108.5,357C 117.435,354.734 126.435,352.901 135.5,351.5 Z"/></g>
<g><path style="opacity:1" fill="#784d35" d="M 317.5,319.5 C 317.833,319.5 318.167,319.5 318.5,319.5C 318.5,329.833 318.5,340.167 318.5,350.5C 321.833,350.5 325.167,350.5 328.5,350.5C 325.023,351.323 321.356,351.823 317.5,352C 316.209,354.09 316.876,355.424 319.5,356C 326.826,356.5 334.159,356.666 341.5,356.5C 339.393,357.468 337.059,357.802 334.5,357.5C 328.611,357.45 322.944,358.116 317.5,359.5C 316.571,363.837 314.238,367.337 310.5,370C 296.934,372.202 283.267,373.369 269.5,373.5C 269.611,372.883 269.944,372.383 270.5,372C 268.833,371.667 267.167,371.333 265.5,371C 266.634,369.984 266.301,369.317 264.5,369C 265,368.833 265.5,368.667 266,368.5C 271.38,370.322 276.88,370.822 282.5,370C 281.062,369.781 279.729,369.281 278.5,368.5C 278.667,368.167 278.833,367.833 279,367.5C 282.199,368.844 285.533,369.844 289,370.5C 295.156,369.882 301.323,369.382 307.5,369C 308.376,367.415 309.709,366.415 311.5,366C 309.699,365.683 309.366,365.016 310.5,364C 309.364,362.855 308.364,361.688 307.5,360.5C 307.833,359.5 308.5,358.833 309.5,358.5C 310.859,359.007 311.859,360.007 312.5,361.5C 315.926,359.74 316.259,357.574 313.5,355C 315.211,353.565 316.378,351.731 317,349.5C 317.5,339.506 317.666,329.506 317.5,319.5 Z"/></g>
<g><path style="opacity:1" fill="#754325" d="M 307.5,360.5 C 308.364,361.688 309.364,362.855 310.5,364C 309.366,365.016 309.699,365.683 311.5,366C 309.709,366.415 308.376,367.415 307.5,369C 301.323,369.382 295.156,369.882 289,370.5C 285.533,369.844 282.199,368.844 279,367.5C 278.833,367.833 278.667,368.167 278.5,368.5C 279.729,369.281 281.062,369.781 282.5,370C 276.88,370.822 271.38,370.322 266,368.5C 265.5,368.667 265,368.833 264.5,369C 266.301,369.317 266.634,369.984 265.5,371C 267.167,371.333 268.833,371.667 270.5,372C 269.944,372.383 269.611,372.883 269.5,373.5C 248.89,374.913 228.224,376.247 207.5,377.5C 198.264,377.593 189.264,377.093 180.5,376C 185.287,375.392 189.62,373.725 193.5,371C 206.383,370.535 219.05,369.369 231.5,367.5C 236.193,367.46 240.859,367.127 245.5,366.5C 246.833,366.5 248.167,366.5 249.5,366.5C 267.454,365.561 285.454,364.394 303.5,363C 304.984,362.338 306.317,361.504 307.5,360.5 Z"/></g>
<g><path style="opacity:1" fill="#e3c9a9" d="M 107.5,373.5 C 107.286,375.144 107.62,376.644 108.5,378C 112.145,378.719 115.812,379.219 119.5,379.5C 117.977,382.63 117.311,385.963 117.5,389.5C 112.901,389.8 108.401,389.467 104,388.5C 103.561,384.789 103.894,381.122 105,377.5C 105.2,375.68 106.034,374.347 107.5,373.5 Z"/></g>
<g><path style="opacity:1" fill="#c29f7f" d="M 452.5,383.5 C 471.169,384.747 489.835,384.747 508.5,383.5C 489.831,386.125 471.164,386.125 452.5,383.5 Z"/></g>
</svg>
